<?xml version="1.0" encoding="UTF-8" standalone="no"?>
<!-- Created with Inkscape (http://www.inkscape.org/) -->

<svg
   width="1024mm"
   height="128mm"
   viewBox="0 0 1024 128"
   version="1.1"
   id="svg1"
   inkscape:export-filename="WebsiteHeader.png"
   inkscape:export-xdpi="96"
   inkscape:export-ydpi="96"
   inkscape:version="1.4 (86a8ad7, 2024-10-11)"
   sodipodi:docname="drawing.svg"
   xmlns:inkscape="http://www.inkscape.org/namespaces/inkscape"
   xmlns:sodipodi="http://sodipodi.sourceforge.net/DTD/sodipodi-0.dtd"
   xmlns:xlink="http://www.w3.org/1999/xlink"
   xmlns="http://www.w3.org/2000/svg"
   xmlns:svg="http://www.w3.org/2000/svg">
  <sodipodi:namedview
     id="namedview1"
     pagecolor="#ffffff"
     bordercolor="#666666"
     borderopacity="1.0"
     inkscape:showpageshadow="2"
     inkscape:pageopacity="0.0"
     inkscape:pagecheckerboard="0"
     inkscape:deskcolor="#d1d1d1"
     inkscape:document-units="mm"
     inkscape:zoom="0.38183766"
     inkscape:cx="1748.1251"
     inkscape:cy="195.10909"
     inkscape:window-width="1920"
     inkscape:window-height="1017"
     inkscape:window-x="-8"
     inkscape:window-y="-8"
     inkscape:window-maximized="1"
     inkscape:current-layer="layer1" />
  <defs
     id="defs1">
    <rect
       x="576.16108"
       y="117.85113"
       width="2831.046"
       height="251.41574"
       id="rect98" />
  </defs>
  <g
     inkscape:label="Layer 1"
     inkscape:groupmode="layer"
     id="layer1">
    <path
       id="path1"
       style="fill:#c6afe9;stroke-width:0.264583"
       d="m 1016.9245,27.100671 c -2.8485,0.0263 -5.6897,0.210051 -8.4718,0.745175 -1.9768,0.380228 -2.9402,0.920823 -4.7166,1.713073 -5.75155,3.300677 -11.58835,6.53286 -16.69661,10.807093 -5.663,4.933767 -10.69531,10.078615 -15.09003,16.201078 -5.49852,7.348897 -10.44788,15.131833 -16.78864,21.816756 -2.63187,2.707465 -4.67696,4.941073 -7.5737,7.38818 -2.58881,2.186998 -6.0679,4.516817 -8.81341,6.440433 -0.73181,0.512747 -1.42706,1.081364 -2.19367,1.540475 -1.9718,1.180885 -4.00917,2.249765 -6.01358,3.374471 -2.25858,1.146091 -4.49244,2.342151 -6.77582,3.438035 -6.96762,3.34403 -14.15295,6.18683 -21.30102,9.11159 -1.98019,0.81023 -3.94116,1.6683 -5.93401,2.44688 -1.71291,0.66923 -3.45404,1.2636 -5.18108,1.89549 -1.45563,0.40598 -2.88793,0.9065 -4.36666,1.21801 -5.56102,1.17149 -11.37136,0.54628 -16.83463,-0.75809 -3.44075,-1.05661 -6.81531,-2.24259 -10.10998,-3.7052 -3.27758,-1.45502 -5.57228,-2.72925 -8.8284,-4.34857 -1.86701,-0.92848 -3.74661,-1.83173 -5.61981,-2.74764 -6.12534,-2.74394 -7.81616,-3.5952 -14.32057,-6.089035 -14.86175,-5.698112 -30.19416,-10.030015 -45.72279,-13.491683 -4.85252,-1.020953 -9.69218,-2.103473 -14.55725,-3.062862 -16.92654,-3.337907 -34.06905,-6.13624 -51.26871,-7.624857 -2.00946,-0.173919 -4.02835,-0.212888 -6.04252,-0.319361 -12.36006,0.277466 -24.65543,1.545952 -36.97914,2.476335 -15.4989,1.133568 -30.997,2.255909 -46.4752,3.653007 -18.97068,1.712336 -25.62262,2.419715 -44.80295,4.646745 -8.2292,0.955495 -16.45072,1.977448 -24.67601,2.966227 -12.75339,1.632749 -36.09906,4.656342 -49.04404,6.181535 -11.32486,1.334305 -24.356,3.024645 -35.95181,3.133142 -10.69568,0.100074 -13.20598,-0.709597 -23.45335,-2.32699 C 448.78,92.947229 445.21377,92.171844 441.69862,91.201152 426.07201,86.885935 410.97591,80.840009 396.47864,73.614111 381.69272,65.950172 367.02962,58.043398 351.9997,50.858911 341.50897,45.78524 331.0105,40.538084 319.57171,37.925334 c -2.14672,-0.45788 -4.28308,-0.968594 -6.44044,-1.37356 -13.72603,-2.576586 -27.70914,-3.841365 -41.67445,-3.230294 -2.88851,0.22451 -5.78823,0.335422 -8.66563,0.673861 -2.61107,0.307113 -5.1987,0.792242 -7.78557,1.261422 -10.48347,1.901383 -20.84223,4.476803 -31.04616,7.531323 -15.90289,5.237945 -31.63137,11.002242 -47.6958,15.743742 -7.57685,2.029848 -15.17001,4.015491 -22.78827,5.885429 -1.25501,0.308046 -9.03802,2.079767 -10.68411,2.501656 -1.37541,0.352515 -2.73427,0.765443 -4.10155,1.14825 -2.97015,0.834464 -4.95636,1.469513 -8.04241,2.000912 -7.86879,1.354955 -15.91201,1.383754 -23.86262,1.048514 C 92.613778,70.272193 78.373832,69.10469 64.71543,64.960376 62.779431,64.35965 60.823998,63.818758 58.907515,63.158419 50.327448,60.202089 42.158296,56.13604 35.139974,50.327161 33.484241,48.951709 29.056365,45.289937 27.417448,43.863989 22.984326,40.006931 18.789654,35.884938 14.377417,32.004765 c -1.387349,-1.29975 -2.727646,-2.648948 -4.086056,-3.979602 -0.01612,0.468207 -3.01e-4,1.229445 -0.09302,2.625679 -0.04938,0.743581 -0.110614,1.486143 -0.179317,2.228288 0.38361,0.363951 0.730048,0.765228 1.115694,1.127063 4.430521,3.868436 8.630078,7.995311 13.075688,11.846822 1.29531,1.122209 6.446618,5.384433 7.747847,6.464205 7.039422,5.850403 15.25146,9.933599 23.867277,12.913424 1.923524,0.66526 3.886375,1.210148 5.829618,1.815393 13.690949,4.149608 27.966856,5.322833 42.169522,6.193937 7.93077,0.365887 15.95297,0.361818 23.8125,-0.926042 3.18321,-0.521597 4.97514,-1.090692 8.03155,-1.924947 1.37224,-0.386072 2.73744,-0.799249 4.11706,-1.158069 2.77142,-0.720813 8.13064,-1.916802 10.74198,-2.566251 7.64514,-1.901365 15.26836,-3.903068 22.87819,-5.940206 16.0572,-4.746064 31.79381,-10.472302 47.69012,-15.713253 10.1963,-3.076128 20.54949,-5.664227 31.03014,-7.574215 2.58302,-0.470728 5.16711,-0.953936 7.77369,-1.269173 2.88231,-0.348589 5.78674,-0.480655 8.68009,-0.720886 13.92936,-0.661969 27.88218,0.595894 41.56852,3.197738 2.14415,0.407614 4.26715,0.920604 6.40064,1.380794 11.38222,2.695628 21.92041,7.834596 32.42283,12.832808 15.05765,7.138394 29.71225,15.072807 44.5115,22.720577 14.52515,7.274859 29.68774,13.244841 45.3533,17.574638 3.51872,0.972537 7.08703,1.757342 10.63036,2.636015 10.25392,1.630064 12.83963,2.462136 23.55153,2.339909 11.97702,-0.136662 24.5314,-1.896191 36.31613,-3.336231 9.74399,-1.190667 39.79905,-5.089717 49.21819,-6.306075 8.21809,-0.984387 16.43178,-2.007007 24.65431,-2.953308 17.76881,-2.044936 27.03771,-3.016622 44.67944,-4.563546 15.35047,-1.346012 30.72278,-2.360681 46.09693,-3.383256 12.22928,-0.808038 24.43388,-1.967888 36.68871,-2.283581 2.02174,0.08983 4.04716,0.118517 6.06527,0.269234 17.32143,1.293598 34.56155,3.995038 51.5953,7.336503 4.86285,0.953929 9.69896,2.039141 14.54846,3.058728 15.46235,3.46406 30.71889,7.835568 45.48922,13.591935 6.40983,2.498076 8.16455,3.390096 14.20223,6.137096 1.85833,0.92083 3.72398,1.82792 5.57537,2.76262 3.24776,1.63967 5.49534,2.91345 8.76019,4.39715 3.28766,1.49407 6.65443,2.7022 10.09396,3.78375 5.48783,1.34178 11.33237,2.02578 16.9354,0.8847 1.50297,-0.30608 2.9607,-0.80224 4.44107,-1.20355 1.74577,-0.63357 3.50655,-1.2279 5.23741,-1.90117 4.31225,-1.67739 8.57025,-3.49161 12.84314,-5.26687 4.86436,-2.02101 9.74566,-4.06963 14.50041,-6.34121 2.28144,-1.08996 4.51518,-2.27715 6.77271,-3.415813 8.04482,-4.514024 16.27568,-8.999374 23.33604,-15.013554 2.6984,-2.298563 5.09301,-4.895917 7.55096,-7.438306 6.34169,-6.712487 11.27947,-14.525867 16.80931,-21.877217 4.39809,-6.081292 9.48915,-11.2518 15.15205,-16.139067 3.21074,-2.628768 6.70974,-4.862226 10.27382,-6.976835 1.6462,-0.770512 2.6545,-1.337494 4.5377,-1.739945 5.5524,-1.186648 11.342,-0.879154 16.9695,-0.690398 2.3976,0.07464 4.7545,0.432945 7.1138,0.77308 -0.112,-0.847484 -0.2282,-1.829743 -0.3302,-2.588473 -1.2381,-0.116412 -2.4566,-0.366691 -3.7058,-0.404626 -2.8108,-0.09566 -5.6667,-0.226807 -8.5152,-0.200505 z" />
    <path
       id="path2"
       style="fill:#c6afe9;stroke-width:0.264583"
       d="m 334.44057,27.365255 c -4.86253,-0.109704 -9.73266,0.04426 -14.57741,0.421163 -5.6846,0.442241 -7.61638,0.814055 -13.20591,1.623156 -12.10633,1.94047 -24.22963,3.917831 -36.13009,6.898804 -1.46465,0.397504 -2.93498,0.775155 -4.39405,1.192692 -5.53936,1.585174 -4.55724,1.480441 -10.55233,3.078882 -7.59528,2.025089 -15.28081,3.615072 -22.97637,5.200199 -15.43864,2.764443 -31.06444,4.603995 -46.7434,5.209502 -3.72801,0.14397 -7.45955,0.158097 -11.1895,0.237194 C 150.24498,51.119146 125.89499,49.083745 101.59432,46.79611 92.383334,45.852756 83.116471,44.958049 74.064213,42.929679 72.202753,42.512574 69.597222,41.771831 67.703361,41.248128 62.715388,40.367809 57.935046,38.726676 53.085649,37.325887 47.118734,35.909599 41.227652,34.14856 35.215422,32.919438 29.636209,31.77884 15.8243,29.406802 10.801925,28.526941 c -0.175056,-0.02896 -0.350496,-0.05577 -0.52555,-0.08475 -0.01888,0.408991 -4.1e-5,1.03418 -0.07803,2.20865 -0.0042,0.06364 -0.01097,0.127072 -0.0155,0.190686 7.291662,1.315249 14.779625,2.612234 21.99814,4.174939 4.940964,1.069647 9.810662,2.467968 14.696778,3.754293 1.000025,0.263265 2.008122,0.49427 3.012219,0.741557 4.851984,1.409981 9.631145,3.076782 14.633215,3.919141 1.930839,0.517528 4.554639,1.241884 6.453353,1.651578 9.14115,1.972423 18.486994,2.819695 27.776083,3.737757 24.324107,2.203961 48.687267,4.222722 73.126277,4.443139 3.71565,-0.06311 7.43329,-0.05761 11.14713,-0.189652 15.67067,-0.557157 31.28398,-2.422984 46.72014,-5.127853 7.66517,-1.561233 15.32534,-3.121239 22.89576,-5.104598 5.93677,-1.555363 5.00846,-1.463175 10.49445,-3.039607 1.46,-0.419537 2.93088,-0.801251 4.39612,-1.201994 11.9045,-3.058229 24.04782,-5.046363 36.17712,-6.983036 5.64959,-0.835247 7.45641,-1.195116 13.20384,-1.662431 9.65343,-0.7849 19.41233,-0.695405 29.00702,0.69143 1.89455,0.407 3.8078,0.736081 5.68389,1.221115 9.12188,2.358345 17.48675,6.802656 25.39121,11.830285 1.90132,1.246245 10.26417,6.741153 11.97343,7.804175 12.50958,7.779932 25.7485,14.289451 39.59552,19.346623 14.98928,5.11624 17.8418,6.355237 33.75659,10.60452 27.68923,7.393082 55.9387,12.431831 84.29253,16.465145 5.79255,0.705249 11.57092,1.539616 17.37775,2.115637 18.2436,1.80969 36.75035,1.8482 54.6623,-2.478405 3.01691,-0.812192 6.05523,-1.548293 9.05061,-2.436544 18.29186,-5.424244 35.84541,-12.974935 53.47322,-20.192049 8.09731,-3.248856 17.56606,-7.103196 25.71316,-10.138916 17.71478,-6.600756 35.69502,-12.561077 54.0334,-17.184481 9.88557,-2.202127 15.28315,-3.686998 25.20156,-4.853451 3.20611,-0.37705 6.43602,-0.672493 9.66401,-0.636137 2.12733,0.02397 4.23305,0.455986 6.32984,0.815971 4.80441,0.82483 7.3613,1.697698 12.07369,3.043742 2.16987,0.75602 4.35329,1.473043 6.50916,2.268079 14.91065,5.498682 29.36281,12.193624 44.33476,17.538464 8.99226,3.102766 15.65501,5.45376 24.78919,8.382951 21.54243,6.908329 43.36825,12.939377 65.34433,18.300692 20.22364,4.603308 12.88254,3.048949 32.25126,7.026444 10.88511,2.23533 21.7892,4.65223 32.8714,5.68751 1.1219,-0.0753 2.2536,-0.0593 3.3657,-0.22583 0.3422,-0.0512 0.5776,-0.15419 0.8841,-0.21859 -0.1235,-0.52605 -0.2745,-1.13897 -0.4583,-1.89601 0,3.1e-4 -0.01,0.001 -0.014,0.002 0.06,0.26131 0.2043,0.81062 0.1427,0.61082 -0.062,-0.20285 -0.1104,-0.40592 -0.1701,-0.60875 -0.2218,0.0143 -0.4423,0.0386 -0.6635,0.0579 -11.1801,-0.81409 -22.1842,-3.194879 -33.15972,-5.358335 C 970.29944,93.613757 978.52491,95.311269 957.76221,90.667334 935.79404,85.394302 914.01297,79.303466 892.52433,72.324784 883.49209,69.39146 876.74511,66.984218 867.84884,63.877755 852.93388,58.514 838.55319,51.778221 823.71716,46.217851 c -2.14847,-0.805217 -4.32518,-1.531676 -6.48797,-2.297534 -4.66095,-1.356656 -7.30642,-2.270007 -12.06593,-3.102653 -2.10664,-0.368544 -4.22337,-0.812591 -6.36189,-0.833541 -3.28695,-0.0322 -6.57442,0.283684 -9.83816,0.674894 -9.90907,1.18776 -15.51814,2.718559 -25.38139,4.922697 -18.35906,4.610023 -36.35154,10.579275 -54.08611,17.173112 -7.91196,2.94173 -17.80293,6.949631 -25.68474,10.101192 -17.5908,7.169787 -35.09085,14.709411 -53.33421,20.113501 -2.98259,0.883515 -6.00717,1.618115 -9.01082,2.427242 -17.94828,4.336428 -36.50243,4.419242 -54.8013,2.722831 -5.84168,-0.541557 -11.65577,-1.347014 -17.48369,-2.020548 -28.4107,-3.881183 -56.71194,-8.847007 -84.415,-16.333887 -15.7689,-4.261625 -18.71263,-5.55683 -33.54938,-10.712008 -13.74531,-5.092369 -26.84205,-11.695898 -39.23326,-19.501135 -1.6492,-1.038844 -10.05529,-6.615433 -11.89798,-7.835181 -7.89834,-5.072904 -16.2547,-9.57444 -25.39328,-11.954825 -1.88746,-0.491633 -3.81262,-0.824198 -5.71904,-1.236101 -4.81498,-0.677579 -9.66991,-1.050949 -14.53244,-1.160652 z m 690.21683,76.346765 c -0.086,-0.63776 -0.014,0.17571 0.051,0.9803 0.028,-0.006 0.055,-0.0138 0.083,-0.0202 -0.026,-0.19313 -0.1154,-0.82689 -0.1333,-0.96014 z" />
    <path
       id="path3"
       style="fill:#c6afe9;stroke-width:0.264583"
       d="m 807.67783,17.469218 c -3.06051,0.03325 -5.9411,1.180723 -8.7359,2.305802 -9.94529,4.062769 -19.33608,9.517269 -27.77401,16.171106 -8.29122,6.780739 -16.18631,14.05356 -22.3113,22.922115 -6.57204,9.219235 -12.39185,18.929904 -18.73788,28.304216 -5.55569,7.799467 -11.33674,15.617553 -18.58801,21.958863 -1.83833,1.60763 -3.83135,3.02949 -5.77484,4.50826 -1.07395,0.81715 -2.18375,1.58583 -3.27577,2.37866 -4.86099,2.67434 -9.78047,5.19776 -14.85904,7.39645 0.77369,0.0346 1.46495,0.0677 2.07067,0.0961 3.52894,-1.71839 6.90567,-3.54237 9.96632,-5.21777 6.49562,-4.09328 9.8589,-5.75413 15.2554,-10.51512 7.23236,-6.38065 13.01524,-14.250182 18.57044,-22.065839 6.36153,-9.386845 12.20667,-19.103873 18.80144,-28.330571 6.13653,-8.84111 14.04964,-16.075797 22.34282,-22.828064 4.12279,-3.314759 8.50943,-6.254563 13.1439,-8.801529 0.31048,-0.170641 0.66088,-0.256243 0.98237,-0.405144 6.18487,-2.864573 1.43368,-0.835789 7.18509,-3.206522 2.75497,-1.095665 5.5808,-2.245144 8.58811,-2.340943 1.54088,-0.04909 2.00041,0.114653 3.58169,0.375688 10.79164,2.109778 21.3558,5.207048 31.84095,8.486304 16.62237,5.379993 32.79226,12.080649 48.72571,19.223632 9.71796,4.223165 18.83606,9.66489 28.47113,14.048755 9.29291,3.340809 18.60151,6.68333 28.06495,9.518282 5.96005,1.785448 9.85551,2.710684 15.83314,4.2292 7.43513,1.71202 15.21158,3.331201 22.82962,1.734777 3.74473,-0.784739 4.49794,-1.38643 7.84603,-2.996716 4.05046,-2.565905 6.03803,-3.261301 8.87804,-6.438367 3.3537,-3.752025 5.2927,-8.614076 7.3499,-13.130981 2.01,-4.385228 3.7964,-8.961199 6.5526,-12.957865 1.6766,-2.431169 3.2757,-4.031207 5.288,-6.26215 2.9333,-2.858111 6.1187,-5.411859 9.3597,-7.895126 -0.045,-0.331802 -0.1023,-0.812864 -0.1442,-1.13068 -4.4241,3.259919 -8.7587,6.633195 -12.6938,10.488249 -2.1623,2.402684 -3.5575,3.759061 -5.3175,6.354134 -2.7256,4.018899 -4.4846,8.603474 -6.5081,12.985254 -1.5863,3.450262 -3.0928,7.029799 -5.23435,10.188008 -3.14653,4.640249 -1.09226,1.11888 -4.80746,5.221387 -0.0722,0.07972 0.1656,0.13675 0.24857,0.205155 -3.3297,1.665933 -4.05542,2.273299 -7.79591,3.110922 -7.6127,1.704742 -15.41724,0.153151 -22.87457,-1.528073 -6.06806,-1.519671 -9.79525,-2.382303 -15.844,-4.194059 -9.41199,-2.819146 -18.65487,-6.191037 -27.86393,-9.602514 C 910.63724,55.467123 901.44706,50.095064 891.69338,45.8809 875.72387,38.777229 859.53234,32.093835 842.91754,26.641248 832.50566,23.3107 822.01566,20.169869 811.30655,17.936353 c -1.57866,-0.299894 -2.07723,-0.48401 -3.62872,-0.467155 z M 495.57544,41.313757 c -1.23282,-0.0548 -2.45337,0.01059 -4.2044,0.33383 -2.21462,0.408816 -5.36308,1.662082 -7.31583,2.686141 -6.06933,3.182845 -6.62573,3.706282 -11.60188,7.032129 -10.94906,8.193831 -21.60513,16.839625 -31.20326,26.607161 -3.10142,3.001819 -6.65931,6.537546 -9.94255,9.353435 -1.63431,1.401683 -3.3612,2.691579 -5.03845,4.041613 -6.03041,4.853993 -12.06023,9.709664 -18.24746,14.364494 -4.8165,3.60693 -8.37021,6.32975 -13.31805,9.78442 -7.94569,5.54784 -16.26233,10.52369 -24.68635,15.30656 0.40238,6.2e-4 0.80453,0.0145 1.20716,0.0103 0.24662,-0.14184 0.4958,-0.27923 0.74207,-0.42168 5.80668,-3.35859 13.10637,-7.58631 18.89497,-11.33729 7.06184,-4.57602 13.78044,-9.6306 20.50935,-14.67352 6.19593,-4.669957 12.23658,-9.537975 18.2857,-14.394471 1.68738,-1.354712 3.42957,-2.642329 5.07049,-4.052982 2.97868,-2.560709 7.10569,-6.653954 9.91051,-9.378239 9.59636,-9.783905 20.28821,-18.408253 31.26527,-26.58029 3.76274,-2.657711 7.84796,-5.098775 12.44472,-6.014103 3.52978,-0.702861 4.77612,-0.3474 8.43205,-0.0832 1.78078,0.364948 3.57754,0.659085 5.34231,1.095023 6.78545,1.676167 13.38023,4.142189 19.9316,6.542753 5.13882,1.882976 10.26065,3.811697 15.39182,5.715414 15.19399,5.574601 30.44351,11.112774 44.99674,18.242297 2.59905,1.273252 5.14663,2.648904 7.71994,3.973401 14.41082,7.601365 26.78247,18.256037 39.31026,28.521257 6.10772,4.8663 12.41578,9.4909 18.93218,13.79657 2.59006,1.71137 6.53362,4.16127 9.59373,5.68545 1.65926,-0.43592 3.32938,-0.8278 5.01261,-1.17099 -0.37073,-0.14188 -0.7576,-0.24423 -1.11931,-0.40825 -3.13073,-1.41967 -7.61928,-4.24421 -10.41487,-6.06888 -6.53727,-4.26685 -12.84909,-8.88132 -18.95284,-13.74593 -12.54993,-10.281797 -24.91676,-20.983929 -39.37124,-28.571898 -2.58014,-1.325645 -5.13384,-2.7046 -7.74062,-3.977018 -14.56314,-7.108531 -29.83841,-12.602601 -44.99467,-18.276921 -3.00122,-1.125241 -12.16744,-4.567063 -15.35617,-5.743835 -6.54121,-2.413987 -13.10935,-4.905818 -19.87268,-6.645073 -1.76215,-0.453154 -3.55611,-0.773504 -5.33405,-1.160135 -1.80093,-0.157776 -3.04599,-0.332774 -4.2788,-0.387574 z M 143.52251,59.939494 c -2.97223,-0.343302 -9.28886,0.409895 -12.10056,0.806669 -9.04531,1.276427 -17.93126,3.45028 -26.88053,5.234823 C 76.289334,71.951132 48.008911,77.82472 19.566248,82.825435 14.518582,83.64218 9.4894701,84.585681 4.4193685,85.24906 c -1.8445296,0.241341 -3.70884133,0.348492 -5.5696859,0.487826 -0.2095577,0.69237 -0.4056014,1.388247 -0.6221842,2.078942 1.04165426,-0.09786 2.08912686,-0.154007 3.1238403,-0.295589 1.6046388,-0.219564 15.2884203,-2.54334 15.3721883,-2.557466 28.467299,-5.18472 56.804725,-11.05458 85.132793,-16.944703 8.87299,-1.742993 17.69043,-3.842691 26.65625,-5.08496 2.83851,-0.393295 9.01384,-1.115719 12.00443,-0.801502 2.69404,0.283059 5.31859,1.032493 7.97781,1.548743 18.45359,5.853909 35.77646,14.855466 52.07693,25.225333 10.68903,6.800035 17.72497,12.203276 27.92491,19.668566 11.08021,8.20846 21.56023,17.17326 32.34324,25.75657 1.57205,-0.12402 3.14378,-0.18712 4.71548,-0.29352 -11.5412,-8.95057 -22.6372,-18.46687 -34.37827,-27.1632 C 221.13502,99.529838 213.74956,93.889772 203.24754,87.174007 187.00437,76.78692 169.76708,67.752456 151.45329,61.620528 c -2.64347,-0.560186 -5.24646,-1.370987 -7.93078,-1.681034 z" />
    <path
       id="path4"
       style="fill:#ccaaff;stroke-width:0.264583"
       d="m 1006.5706,-0.56068929 c -0.9594,0.0432324 -2.8523,0.0328647 -3.7688,0.45526937 -5.6119,2.58632782 -7.8029,4.69919002 -10.80344,9.91309002 -6.84506,12.4855559 -12.71849,25.4597209 -19.05878,38.2023189 -1.36586,2.586072 -2.66097,5.210947 -4.09794,7.758183 -4.33036,7.676148 -9.25127,15.301818 -15.04818,21.966101 -4.60169,5.29024 -7.88624,7.827617 -13.22038,12.502596 -1.90764,1.502791 -3.67802,3.198675 -5.72317,4.508252 -13.82215,8.850869 -29.82199,13.272899 -46.13826,14.181049 -4.41735,0.24586 -8.84791,-0.007 -13.27206,-0.0103 -4.35499,-0.45226 -8.74029,-0.67521 -13.06535,-1.3565 -18.88379,-2.9747 -36.51754,-10.711285 -53.40243,-19.364753 -23.33223,-12.394178 -46.0657,-25.891079 -69.68309,-37.7455 -10.49745,-4.908986 -17.25781,-8.236158 -28.04273,-12.601815 -19.21904,-7.779745 -39.11384,-13.926384 -59.46355,-17.939473 -10.14481,-1.572188 -14.3709,-2.685507 -24.46362,-2.567285 -9.32169,0.10919 -18.52093,2.090578 -26.92188,6.185152 -3.55171,1.731085 -6.90422,3.843783 -10.35647,5.765539 -6.04499,4.102555 -7.70708,4.91528 -13.10773,9.824724 -1.99213,1.810946 -3.84304,3.77214 -5.71386,5.708178 -6.2485,6.466414 -12.13815,13.27218 -17.55862,20.449915 -7.32409,10.002308 -3.95582,5.292777 -11.0448,15.409912 -5.2328,7.468045 -10.32293,15.14659 -16.36644,22.002276 -1.9975,2.26594 -4.18681,4.35531 -6.28024,6.53293 -3.05197,2.56779 -8.8527,7.71545 -12.57856,9.98492 -12.24206,7.45682 -25.62985,12.61248 -39.46064,16.12615 1.01223,0.1322 2.02432,0.2652 3.03702,0.39378 16.17739,-4.6715 31.59326,-11.96357 45.22308,-21.86224 2.49661,-1.81316 4.71436,-3.98259 7.0714,-5.97379 2.09095,-2.19022 4.27732,-4.29285 6.27249,-6.57066 6.0254,-6.879025 11.10616,-14.572145 16.3375,-22.048783 7.02011,-10.033119 3.77095,-5.486587 11.03602,-15.398027 5.43732,-7.173296 11.34425,-13.972001 17.61443,-20.42666 1.88066,-1.935996 3.74081,-3.898558 5.74384,-5.707662 5.37916,-4.858396 7.10688,-5.707672 13.12478,-9.758061 9.63641,-5.429401 20.02569,-8.344269 31.11076,-8.552966 10.13899,-0.190886 14.32648,0.897291 24.52873,2.41949 20.38903,3.889951 40.30751,10.020592 59.53952,17.803048 10.76148,4.354754 17.52787,7.694947 27.99778,12.602332 23.58255,11.847777 46.26092,25.373225 69.51772,37.833349 16.88518,8.758137 34.59525,16.41464 53.51714,19.40243 4.3366,0.68475 8.73266,0.9178 13.09895,1.37666 4.43262,0.0115 8.871,0.26962 13.29738,0.0346 12.40107,-0.65848 24.8355,-3.28783 36.15903,-8.48269 8.37954,-3.844242 13.95984,-8.203122 21.65242,-13.457059 5.25642,-4.621819 8.75285,-7.355672 13.28963,-12.598198 5.64502,-6.523191 10.78221,-14.524352 15.00322,-22.036381 1.43544,-2.554589 2.73025,-5.185486 4.09536,-7.778336 6.35434,-12.788477 12.25571,-25.803631 19.23293,-38.2720827 1.45383,-2.2456291 2.19016,-3.6872154 4.04317,-5.5314453 0.15114,-0.1504331 0.32038,-0.2777892 0.49971,-0.3994589 0.35841,0.1605973 1.05411,-0.3676345 1.57411,-0.4495849 0.6189,-0.097531 1.2499,-0.091344 1.8748,-0.1369426 3.741,0.00369 7.1256,1.689316 10.5492,2.9848308 l 3.2334,-2.1735108 c -3.4507,-1.3296736 -6.8658,-3.02977449 -10.6345,-3.12694089 z M 135.86871,19.684587 c -1.32071,-0.04781 -2.64764,-0.02552 -3.96462,0.0036 -6.7067,0.148364 -13.07558,1.967698 -19.13578,4.741829 -2.95577,1.663303 -5.97026,3.226053 -8.86716,4.989877 -2.04617,1.245843 -3.997692,2.643502 -5.950023,4.031795 C 88.878334,39.90332 80.798829,47.490474 73.107682,55.520642 58.61431,70.13573 43.764572,84.446663 27.185937,96.721745 15.818239,105.02596 4.3294348,113.29855 -8.0925293,119.97872 l -2.1946977,1.77302 c 0.123235,0.007 0.179718,0.009 0.2986894,0.0155 10.89936646,-5.97337 21.4265186,-12.62636 31.5505286,-19.83341 2.979053,-2.120718 5.896949,-4.32602 8.845455,-6.48901 16.571656,-12.32834 31.468531,-26.630159 45.968771,-41.279651 7.706805,-8.04668 15.831546,-15.615402 24.942663,-22.050333 5.60821,-3.960926 4.32621,-3.17134 8.58397,-5.373316 6.03036,-2.798406 12.38059,-4.665789 19.06912,-4.873604 2.63121,-0.08175 5.29965,-0.124623 7.88996,0.344682 8.06254,1.460745 15.83931,5.061017 23.3531,8.052221 29.63236,13.447956 57.77362,29.883194 85.83765,46.282447 19.52786,11.227427 38.52587,23.394245 58.67084,33.521464 16.01621,8.05161 17.82842,8.42987 34.46301,15.28072 4.4768,1.65374 9.01961,3.1416 13.56248,4.62401 2.45558,0.0101 4.91114,0.0275 7.37061,0.19947 0.47562,0.0321 0.95103,0.0663 1.42679,0.0961 -6.66496,-2.02204 -13.27729,-4.21843 -19.80241,-6.62957 -16.50243,-6.79832 -18.53368,-7.26049 -34.40669,-15.28124 -20.10715,-10.160246 -39.07498,-22.353942 -58.59745,-33.554 -28.06151,-16.38939 -56.21101,-32.773614 -85.74929,-46.397685 -7.01318,-2.862106 -15.57042,-6.825161 -23.19342,-8.305436 -1.29313,-0.251109 -2.60773,-0.368698 -3.92844,-0.416512 z" />
    <path
       id="path5"
       style="fill:#8787de;stroke-width:0.264583"
       d="m 137.00301,6.5825439 c -4.9692,0.088127 -9.94472,-6.728e-4 -14.90762,0.2645834 -24.005207,1.2830268 -47.582628,6.5988907 -70.498539,13.6410277 -4.240427,1.374743 -8.50673,2.671895 -12.721188,4.124296 -9.898803,3.411361 -19.541128,7.486111 -29.0829791,11.782743 -0.00876,0.34126 -0.028859,0.681779 -0.034623,1.023194 C 18.439004,33.548127 27.193469,29.847732 36.177637,26.7224 40.40928,25.250336 44.693546,23.93426 48.951534,22.540226 71.858153,15.453168 95.446296,10.124579 119.45266,8.803597 c 4.9616,-0.2730185 9.93636,-0.1943533 14.90451,-0.2914551 19.83871,0.4290015 39.67745,3.1239921 58.83982,8.3447101 11.07119,3.016305 15.15104,4.831711 25.70696,8.81755 12.86203,5.218062 25.03674,11.909276 36.48305,19.739363 6.06823,4.151101 9.32877,6.742473 15.24403,11.228256 8.79456,6.336522 17.72271,12.633397 27.23038,17.878495 4.14814,2.288389 8.38464,4.41834 12.6571,6.465238 11.66606,5.589135 16.87583,7.488615 28.89178,12.367204 18.19436,6.698192 36.66569,12.814882 55.49067,17.507462 9.94724,2.47959 13.83622,3.11998 23.66419,5.04568 10.56508,1.86572 21.58889,2.71769 32.23937,0.82631 8.58592,-1.52473 19.94919,-5.21968 27.94093,-8.37623 4.79856,-1.89533 9.43087,-4.18642 14.14643,-6.27972 11.81804,-6.382767 16.79125,-8.75955 28.34814,-16.382466 6.51105,-4.294685 13.89638,-10.173483 19.79672,-15.333948 4.85,-4.241827 10.29081,-9.669499 14.92261,-14.191898 6.07941,-5.837973 11.80633,-12.055055 18.05316,-17.720366 5.16811,-4.687004 10.66564,-8.943553 16.28841,-13.059668 1.58884,-1.014463 3.13513,-2.098857 4.76663,-3.043225 0.41362,-0.239416 0.89677,-0.330617 1.34566,-0.494543 1.49762,-0.546864 2.96146,-1.19964 4.4943,-1.638143 3.07983,-0.881052 6.71363,-1.394524 9.90792,-1.393713 1.91704,4.76e-4 3.82512,0.262368 5.73763,0.393774 2.1317,0.364985 4.28869,0.604183 6.39496,1.095024 6.81466,1.588062 12.35737,3.573034 18.93425,6.129341 6.94979,2.701256 16.24066,6.749376 22.93245,9.89397 4.33208,2.035733 8.60038,4.205196 12.9005,6.307625 18.24185,9.146135 36.32531,18.62951 54.07991,28.693339 8.79893,4.987486 17.51248,10.123338 26.28108,15.163933 4.60743,2.602913 9.18757,5.254977 13.82241,7.808825 16.26407,8.961729 33.28059,18.084929 50.80672,24.332369 3.70821,1.32183 7.50981,2.36404 11.26494,3.54603 3.82619,0.71305 7.60304,1.78405 11.47889,2.13889 10.14249,0.92855 20.05954,-0.0544 30.07982,-1.67018 10.65731,-1.71854 24.19502,-4.87109 34.34002,-8.60619 6.04822,-2.22677 11.81664,-5.14962 17.72502,-7.7246 25.36918,-12.663117 48.48713,-29.231007 69.68412,-47.975881 2.63154,-2.32713 5.16905,-4.758273 7.75355,-7.137549 6.8711,-6.414659 13.1712,-13.389953 18.7942,-20.915002 l -3.5114,1.513603 c -5.5613,7.432271 -11.7254,14.377056 -18.5121,20.723799 -2.55422,2.362372 -5.06067,4.777115 -7.66256,7.086906 -10.90258,9.678636 -22.32998,18.783615 -34.31264,27.09292 -4.22119,2.92716 -8.47161,5.825207 -12.88862,8.447546 -5.53503,3.286074 -11.29574,6.176048 -16.94367,9.264038 -5.88116,2.56963 -11.62334,5.48501 -17.64388,7.70857 -10.21262,3.77181 -23.5086,6.87941 -34.24494,8.60361 -10.00368,1.60655 -19.73041,2.54441 -29.84366,1.62212 -3.868,-0.35275 -7.64094,-1.40078 -11.46131,-2.10116 -3.76078,-1.16821 -7.56736,-2.19717 -11.282,-3.5047 -17.56143,-6.1815 -34.64218,-15.2364 -50.91472,-24.205755 -4.6301,-2.552107 -9.19836,-5.214416 -13.79761,-7.821745 -8.76737,-5.047723 -17.48631,-10.180155 -26.28987,-15.164449 -17.7564,-10.053077 -35.82447,-19.553982 -54.04424,-28.73623 -4.28267,-2.118397 -8.53197,-4.306213 -12.84831,-6.355168 -6.56357,-3.115704 -16.04265,-7.2693 -22.86321,-9.969934 -6.24168,-2.471418 -12.27923,-4.709201 -18.79523,-6.302457 -2.10122,-0.513775 -4.25805,-0.763783 -6.38721,-1.145667 -5.03923,-0.398057 -6.02656,-0.753397 -10.93577,-0.112138 -8.10905,1.05924 -15.1244,5.28713 -21.77541,9.813871 -5.59014,4.126328 -11.05536,8.388378 -16.19695,13.074138 -6.2121,5.661369 -11.92089,11.856198 -17.96686,17.688326 -4.62513,4.523063 -9.98825,9.885223 -14.83785,14.126269 -12.87524,11.259545 -27.07295,20.862763 -42.42894,28.421009 -4.7071,2.09827 -9.3299,4.39636 -14.1211,6.2947 -7.99188,3.16648 -19.13836,6.7847 -27.72441,8.31526 -10.65932,1.90015 -21.61845,1.09926 -32.20268,-0.73381 -10.08915,-1.92688 -13.50596,-2.44896 -23.73137,-4.96972 C 378.80757,104.31912 360.30597,98.245068 342.09385,91.556685 330.21347,86.729455 324.79049,84.757828 313.2863,79.169328 299.28259,72.366615 286.07207,64.07712 273.60966,54.760482 267.53168,50.118399 264.62131,47.762423 258.37338,43.49812 246.87433,35.649853 234.62078,28.992032 221.69344,23.796997 211.40437,19.937625 206.67733,17.902434 195.91621,14.975313 191.32359,13.72608 186.6725,12.691506 182.01008,11.735201 167.18861,8.6951836 152.14794,6.766769 137.00301,6.5825439 Z" />
    <path
       id="path6"
       style="fill:#dd55ff;stroke-width:0.264583"
       d="m 17.681608,-3.5997803 c 0.01682,0.00509 0.03381,0.00944 0.05064,0.014469 -0.0088,-0.00337 -0.01754,-0.00697 -0.02636,-0.010335 -0.0081,-0.00154 -0.01622,-0.00258 -0.02429,-0.00413 z m 32.4528,1.659847 c -1.831551,0.4692528 -3.716401,0.6659177 -5.612578,0.8040853 14.735032,6.0371522 28.679072,13.922619 41.507027,23.347929 6.282121,4.804017 9.353113,6.926962 15.124143,12.190987 8.27254,7.545785 15.26075,16.301689 21.43952,25.615491 5.76428,8.489138 11.65379,17.649067 18.73012,25.104927 3.64272,3.838091 6.06095,5.564703 10.17509,8.88938 5.59463,3.819891 6.2911,4.635814 12.47986,7.492564 11.58836,5.34922 24.2864,7.58014 36.8024,9.52242 4.54048,0.49027 9.0714,1.0783 13.62139,1.47071 17.39404,1.50016 34.98854,2.14065 52.43711,1.34255 14.26874,-0.65265 22.44983,-1.91733 36.64118,-3.63853 16.68521,-2.57791 33.60677,-4.8481 49.78972,-9.87537 14.43132,-4.483121 27.78137,-11.60414 40.51019,-19.649447 10.14314,-7.209006 10.41925,-6.997698 19.41794,-14.881262 2.66192,-2.332056 5.2495,-4.749592 7.79487,-7.208346 6.25906,-6.046084 6.87081,-7.409213 13.36559,-13.130465 2.1167,-1.864608 4.38499,-3.550256 6.57738,-5.325256 5.40652,-3.737528 3.12118,-2.350771 10.82259,-6.385657 10.58053,-5.543317 21.46371,-10.455838 32.22543,-15.628503 11.50341,-5.60056 23.09412,-11.254118 35.2764,-15.1520468 -0.46573,0.018264 -1.08604,0.022213 -1.36323,0.028939 -0.83727,0.020318 -1.27654,0.00518 -1.98385,0.020154 -9.95334,3.6658345 -19.59531,8.2291828 -29.13569,12.8731158 -10.7583,5.183184 -21.64279,10.095312 -32.23163,15.625403 -2.42316,1.265508 -4.86299,2.504501 -7.22281,3.884517 -3.3024,1.931221 -6.50398,4.029698 -9.756,6.044592 -2.17914,1.784591 -4.43325,3.481464 -6.53758,5.353679 -6.43576,5.725866 -7.07699,7.12139 -13.30462,13.148551 -2.52957,2.448131 -5.10349,4.852617 -7.75146,7.172172 -8.93919,7.830555 -9.25597,7.648897 -19.32802,14.797547 -3.94348,2.339133 -7.78404,4.861173 -11.83029,7.017659 -5.98567,3.190129 -16.96486,7.482141 -22.93865,9.356018 -16.2233,5.088986 -33.17887,7.433966 -49.9153,10.052616 -14.3379,1.74744 -22.20709,2.98078 -36.61947,3.65197 -17.41796,0.81115 -34.95544,0.19092 -52.31412,-1.37459 -4.51912,-0.40756 -9.01832,-1.01462 -13.52734,-1.52187 -12.42142,-1.98111 -25.01521,-4.28103 -36.51508,-9.603548 -6.10884,-2.827374 -6.87945,-3.681401 -12.4132,-7.44399 -4.14874,-3.362785 -6.43297,-4.992139 -10.12031,-8.854757 C 137.25809,75.659464 131.53596,66.772727 125.70499,58.190763 119.51257,48.851942 112.49801,40.085897 104.19157,32.535999 98.309084,27.189277 95.407423,25.214992 88.994568,20.339327 76.934711,11.469598 63.858937,4.03738 50.134408,-1.9399333 Z M 627.55601,10.987443 c 3.87814,1.489208 7.74727,3.004906 11.57345,4.622457 25.44522,10.757165 49.89994,23.696529 74.42388,36.361088 16.3761,8.478453 28.21607,14.648041 44.70787,23.023918 23.0243,11.693607 46.15161,23.414278 70.10063,33.136474 7.45868,3.02789 15.08723,5.62035 22.63066,8.4305 17.08407,5.12404 23.27983,7.75632 40.58564,10.11669 20.61004,2.81104 39.90116,0.38207 59.78291,-5.18469 4.52702,-1.39711 9.09071,-2.68071 13.58108,-4.19148 19.28183,-6.48729 37.90517,-14.86968 56.73707,-22.519555 0.175,-0.07109 0.3506,-0.140848 0.5256,-0.211873 -0.051,-0.29309 -0.1113,-0.582108 -0.1612,-0.876433 -18.0697,7.393431 -35.9876,15.338591 -54.49956,21.574911 -4.48585,1.5112 -9.04377,2.80028 -13.56558,4.20026 -19.77324,5.56987 -39.32408,8.04619 -59.83252,5.37022 -17.35918,-2.26505 -23.59666,-4.8783 -40.74428,-9.92446 -7.56574,-2.7874 -15.21703,-5.35314 -22.69733,-8.36228 C 815.74664,100.53607 798.27945,92.279417 783.81417,85.1979 760.97439,74.016593 738.45705,62.159461 715.89274,50.437231 691.43903,37.743468 667.08174,24.727805 641.72672,13.884424 c -2.3223,-0.993159 -4.68912,-1.877279 -7.02489,-2.840137 -2.38187,0.0056 -4.76358,-0.05658 -7.14582,-0.05684 z" />
    <path
       id="path7"
       style="fill:#87aade;stroke-width:0.264583"
       d="m 506.43369,3.1109212 c -0.6064,0.00214 -1.30252,0.018032 -1.99626,0.020154 -0.72956,0.7701972 -1.44227,1.4866555 -2.20607,2.333191 -5.28997,5.8629478 -7.22386,8.4251208 -12.35532,14.7417358 -7.04035,9.323337 -6.9916,9.068049 -13.73094,18.777148 -8.79046,12.664067 -17.12309,25.699034 -27.60969,37.084558 -8.80716,9.408102 -11.32699,12.628716 -21.37234,21.116541 -6.54894,5.533531 -16.84591,13.228801 -24.39696,17.752921 -12.90111,7.72954 -18.02249,9.61631 -31.67403,15.86415 -0.0279,0.01 -0.0553,0.0212 -0.0832,0.031 0.58131,-0.005 1.16149,0.0229 1.74304,0.0145 20.52605,-9.10725 40.20606,-20.30798 57.38875,-34.853166 10.02769,-8.488466 12.63055,-11.792965 21.43538,-21.197156 10.55777,-11.399846 18.92423,-24.479536 27.73681,-37.196696 6.86221,-9.902666 6.52827,-9.25499 13.72578,-18.754927 5.17054,-6.320686 7.13392,-8.909528 12.47831,-14.7675743 0.29868,-0.3273844 0.6175,-0.6382578 0.91674,-0.9663493 z m 48.03582,0.649056 c -1.02792,0.016164 -1.31962,0.038197 -1.95543,0.065112 7.04292,3.3820293 14.49781,7.2020088 20.82818,10.7120078 4.53409,2.514019 8.97711,5.187829 13.46585,7.781954 25.38423,15.404178 49.22934,33.152113 72.99244,50.90697 20.79201,15.756673 40.63917,32.686419 60.59941,49.469849 2.04641,0.38278 4.09279,0.76549 6.13916,1.14825 C 705.46598,106.08318 684.5413,88.127896 662.56938,71.47419 638.81297,53.682149 614.93188,35.957585 589.52836,20.553267 c -4.48826,-2.598849 -8.9352,-5.27086 -13.46481,-7.79694 -4.88467,-2.724087 -10.49864,-5.4580375 -16.00109,-8.2553097 -0.62634,-0.1243189 -1.25261,-0.2487044 -1.87896,-0.3731039 0.28459,-0.046092 1.13098,-0.059597 0.85369,-0.1384928 -0.80354,-0.2286255 -2.78347,-0.2574998 -4.56768,-0.2294434 z m 327.38984,0.638204 c -3.13204,1.7742784 -6.29975,3.4918563 -9.29091,5.4901041 -7.29036,4.8703437 -14.43009,11.3743317 -20.73051,17.3973877 -9.14069,8.738309 -17.53944,18.141086 -25.90488,27.6071 -10.15897,12.125139 -20.63159,23.961074 -32.08538,34.889344 -3.96491,3.782973 -7.92708,7.576066 -12.08609,11.144543 -4.94377,4.2418 -10.13822,8.18246 -15.20734,12.27367 -6.01531,4.4496 -12.16259,8.71824 -18.36373,12.90929 0.28151,0.0286 0.56346,0.0506 0.84491,0.0801 6.87869,-4.5624 13.69815,-9.21468 20.34449,-14.12472 5.11345,-4.11655 10.35222,-8.08247 15.34067,-12.349629 4.19336,-3.587048 8.19195,-7.397306 12.19047,-11.20035 11.50162,-10.93933 22.04016,-22.774334 32.19441,-34.959624 14.25385,-16.180167 28.84027,-32.493262 46.64315,-44.8928667 2.24963,-1.5668602 4.67899,-2.8581608 7.0342,-4.2627889 -0.30782,-4.745e-4 -0.61564,-0.00104 -0.92346,-0.00155 z m 44.73474,0.7425903 c 1.77403,1.425988 3.34417,2.6428 4.78007,4.5966186 3.26025,4.4361599 2.96861,9.1228849 1.81746,14.2471929 -0.46225,1.768416 -0.8518,3.557381 -1.387,5.305102 -4.07717,13.313941 -11.0639,25.566141 -18.32084,37.354826 -5.43846,8.089712 -6.05154,9.293935 -12.06645,17.051156 -8.94487,11.535899 -19.12082,21.999293 -29.39562,32.342213 -5.67618,5.44305 -11.42558,10.80228 -17.17363,16.16594 0.5411,0.0623 1.08239,0.12203 1.62316,0.18707 6.29092,-5.86329 12.57881,-11.72377 18.7818,-17.68368 10.2526,-10.36846 20.42861,-20.828822 29.36306,-32.376318 6.04515,-7.813151 6.6044,-8.941208 12.07162,-17.087329 7.27151,-11.857559 14.32302,-24.149421 18.45417,-37.516573 0.54483,-1.762882 0.94501,-3.566935 1.41748,-5.350578 1.20978,-5.242486 1.46865,-10.014728 -1.8619,-14.5546672 -0.80094,-1.0917634 -1.61808,-1.9012093 -2.47789,-2.6737386 -1.8752,-0.010505 -3.75031,-0.00191 -5.62549,-0.00723 z M 110.16227,7.5530273 C 98.684545,7.7353224 88.147427,12.717915 78.091874,17.832503 71.898152,16.250765 65.645175,14.891587 59.297673,13.931966 45.017227,11.773035 42.756469,12.236761 28.287679,12.03234 21.680402,12.252467 15.108668,12.785082 8.5736369,13.577466 8.7452406,14.346979 9.0107016,15.511376 8.9581095,15.241447 14.5046,14.62994 20.066886,14.127759 25.665617,13.931449 c 14.502074,0.188703 16.655149,-0.274106 30.97692,1.854151 6.163628,0.915933 12.245266,2.188201 18.268653,3.684013 -4.553301,2.612185 -9.150491,5.15003 -13.647746,7.857401 C 51.902907,32.962105 43.307279,38.711698 34.424772,45.109391 25.501402,51.536515 14.815893,59.692897 6.4983114,66.941134 5.4606537,67.845386 4.4949513,68.829108 3.4871257,69.766284 3.2888148,70.476447 3.1179778,71.193464 2.9093831,71.901038 5.0927894,69.806974 7.2506133,67.68463 9.5301676,65.696765 17.919315,58.381086 28.316473,50.434492 37.326921,43.955973 c 9.502463,-6.83228 17.044641,-11.79603 26.974064,-17.808215 2.824263,-1.710068 5.733899,-3.274138 8.601025,-4.911328 0.97933,-0.501767 1.989748,-0.988991 2.97863,-1.490865 16.161913,4.095911 31.83691,10.025551 46.97904,17.041337 6.08547,3.099126 12.28955,5.976497 18.25677,9.297624 10.01684,5.574998 26.40872,16.326781 35.86913,22.42137 20.96283,13.504677 41.83892,27.14389 62.88143,40.524654 20.00268,12.88326 23.97333,15.44885 37.40289,24.13497 1.25343,-0.0361 2.69433,-0.0137 4.67051,0.0315 -20.0563,-12.90563 -6.90848,-4.45507 -39.82341,-25.61239 C 221.10504,94.206212 200.29545,80.515116 179.40094,66.955086 170.47473,61.162195 153.15154,49.766567 143.64343,44.452067 137.67572,41.116454 131.46079,38.242846 125.36961,35.138424 110.45127,28.193143 95.021441,22.276449 79.112484,18.127576 87.980086,13.764979 97.250797,9.9267237 107.23997,9.7198201 c 6.8987,-0.1428914 8.08888,0.6533449 14.87816,2.3476599 3.63994,1.414856 7.32705,2.71383 10.91974,4.244703 8.18895,3.489373 17.53696,8.106152 25.34626,12.320695 6.88086,3.713477 17.01771,9.617206 23.59288,14.020849 3.37058,2.257396 6.57669,4.751109 9.86503,7.126697 8.13158,6.297729 15.65611,13.36695 22.64513,20.906734 6.33791,6.837362 6.67167,7.812418 12.87673,14.915369 2.47282,2.830637 5.0278,5.588702 7.54166,8.382951 2.76318,2.844028 5.42661,5.788575 8.28941,8.532292 11.74714,11.25855 25.73486,21.64237 40.57169,28.45408 1.8896,0.86753 3.8595,1.54597 5.80843,2.27376 1.99892,-0.26644 3.97048,-0.49449 5.9154,-0.6997 -2.97433,-1.10301 -5.97994,-2.13177 -8.86509,-3.4463 -14.85863,-6.76982 -28.78221,-17.08359 -40.51019,-28.36519 -2.85295,-2.744358 -5.50464,-5.691064 -8.25686,-8.53643 -2.4953,-2.801448 -5.0278,-5.569953 -7.48585,-8.404138 -5.41257,-6.240796 -7.2799,-8.946773 -12.86433,-14.953609 -7.02005,-7.551039 -14.62483,-14.590262 -22.79034,-20.886581 -3.30708,-2.372667 -6.53283,-4.863091 -9.92136,-7.117912 -3.68442,-2.451724 -7.47793,-4.737811 -11.28561,-6.993371 -12.14147,-7.192261 -24.696,-13.768595 -37.622,-19.441191 -3.55625,-1.560668 -7.1961,-2.923066 -10.79417,-4.384745 -6.8329,-1.7688629 -7.96898,-2.5740126 -14.93242,-2.4634157 z M 8.5571004,13.578499 c -0.1562222,0.01895 -0.3104586,0.05051 -0.4666382,0.06976 0.1078661,0.545835 0.2236169,1.090213 0.3369304,1.635042 0.1754425,-0.01974 0.3531539,-0.02199 0.5286499,-0.04134 C 8.7586626,14.258279 8.7043964,14.272267 8.5571004,13.578499 Z M -138.98583,63.311898 c -0.60827,0.31432 -1.21177,0.651794 -1.77767,0.948779 0.10031,0.178364 0.19426,0.360099 0.29455,0.538469 0.69833,-0.359973 1.15541,-0.643774 1.93219,-1.03818 -0.1498,-0.149579 -0.29932,-0.299438 -0.44907,-0.449068 z m -16.22278,8.784477 c -0.46019,0.2704 -0.91913,0.553133 -1.38183,0.822688 -0.11865,0.209463 -0.46772,0.78902 -0.57309,0.98857 0.20558,-0.126848 0.40356,-0.266362 0.60926,-0.39274 0.43348,-0.483971 0.90096,-0.942853 1.34566,-1.418518 z m -5.3666,3.196187 c -0.0868,0.05164 -0.17267,0.102729 -0.25942,0.154512 0.005,0.241998 0.0187,0.475541 0.0491,0.796851 0.13986,-0.09161 0.28086,-0.180831 0.42116,-0.271818 -0.006,-0.230384 -0.005,-0.152926 -0.0134,-0.497127 -0.13051,-0.284544 -0.12345,-0.09351 -0.1974,-0.182418 z m -1.17357,0.698665 -5.2e-4,5.17e-4 c -0.0782,-0.194733 0.19857,0.534405 0.24908,0.712618 0.001,-7.7e-4 0.002,-0.0013 0.004,-0.0021 -0.0772,-0.240514 -0.16231,-0.476129 -0.25218,-0.711068 z" />
    <path
       id="path8"
       style="fill:#87aade;stroke-width:0.264583"
       d="m 131.52686,-3.8287069 c -0.84506,0.2278591 -1.73221,0.4992098 -2.41536,0.6686931 -1.97229,8.4461055 -3.88259,16.9066718 -5.96605,25.3266198 -2.19615,8.712412 -4.30664,17.446476 -6.58822,26.136906 -6.84968,26.090037 -14.42544,52.051988 -23.239412,77.565288 0.559115,0.064 1.249066,0.15103 1.749247,0.21084 8.991665,-25.95018 16.733425,-52.355194 23.790795,-78.871669 2.31879,-8.712329 4.47369,-17.4673 6.7107,-26.200985 2.08703,-8.254145 3.98849,-16.5531592 5.9583,-24.8356929 z M 57.934965,-1.6495117 C 55.588154,0.02491846 53.17808,1.6169359 50.841341,3.2948893 37.793921,12.201308 25.242199,21.802313 12.393042,30.985189 11.851319,27.341008 11.372947,23.6866 10.819495,20.044771 9.9169784,14.867397 8.9833902,9.7038582 8.0703084,4.5340902 7.8231704,4.7090816 7.5705605,4.8758514 7.3230672,5.0503377 7.3533602,6.1565027 7.3600973,7.2626883 7.3075643,8.3684814 7.509546,8.9342224 7.782232,10.412119 7.9643717,11.107332 7.5848188,9.6458092 7.2521977,8.5791276 7.3458049,10.039181 c 0.8163399,4.97753 2.0381646,9.880261 3.0571781,14.820284 -0.08832,4.245281 -1.38e-4,2.711757 -0.204639,5.791377 -0.06826,1.027932 -0.161001,2.053948 -0.2475302,3.080432 0.05314,-0.03681 0.1065502,-0.07324 0.1596802,-0.11007 3.860334,24.703771 7.336794,49.476408 9.789583,74.360316 0.563764,5.71947 0.961849,11.45369 1.428337,17.18242 0.795198,0.0282 1.59048,0.0602 2.385901,0.0971 -0.499681,-6.15505 -0.952617,-12.31407 -1.562696,-18.45882 C 19.665523,81.762278 16.221617,56.826751 12.529985,31.937069 26.507952,22.081358 40.054067,11.619073 54.183256,1.9740397 55.861496,0.77166995 57.567884,-0.38383311 59.24858,-1.578715 58.823686,-1.593723 58.334998,-1.634436 57.934965,-1.6495117 Z M 269.97163,1.7120402 c 0.29699,0.1284706 0.59802,0.2476526 0.89452,0.377238 0.58698,0.00785 1.53808,0.027512 1.15807,-0.041341 -0.68218,-0.1236057 -1.36952,-0.217402 -2.05259,-0.335897 z m 17.447,0.2278931 c -0.79795,0.1296955 -1.58153,0.303993 -2.39107,0.3979085 -0.3895,0.045186 -0.78341,0.03082 -1.17409,0.059945 1.50405,1.6271451 3.0537,3.2120668 4.52066,4.8736043 -3.46502,-1.6942678 -6.73999,-3.2175583 -9.93376,-4.6911865 -0.76776,0.00159 -1.53598,-0.00435 -2.30219,0.018087 -1.57805,-0.094178 -3.15691,-0.1753521 -4.73407,-0.2826701 0.40345,0.1774992 0.81614,0.3337231 1.21853,0.5136638 6.16975,2.758987 13.42386,6.3434942 20.35689,9.9058557 3.75786,4.38262 7.57557,8.715717 11.16108,13.240535 9.43631,11.908391 18.06629,24.462464 26.88311,36.827727 12.5662,17.68344 25.61983,35.063818 40.85591,50.568487 7.98085,8.12154 12.93817,12.45534 18.73167,17.30954 1.40194,0.0437 3.82587,0.28589 5.16506,0.53795 -7.10782,-5.94516 -12.34735,-10.40903 -21.21524,-19.4753 C 359.37539,96.218681 346.41139,78.793171 333.83905,61.142005 325.01866,48.763085 316.3541,36.224747 306.86447,24.340634 c -2.13798,-2.677454 -4.45004,-5.209058 -6.65024,-7.835181 0.68126,0.368749 1.54241,0.783856 2.19057,1.141533 12.32056,6.798931 24.12524,14.494009 35.91563,22.156787 15.24421,10.247648 30.32188,20.745857 45.76569,30.694767 4.50773,2.77237 10.94614,6.810713 15.6068,9.368421 9.87256,5.417897 20.3057,9.830334 31.1583,12.858646 3.00315,0.70168 5.98604,1.495504 9.00927,2.104781 3.43782,0.692828 6.90223,1.25011 10.36578,1.799891 22.48673,3.569391 45.23282,5.182481 67.98344,5.749001 8.20833,0.0746 16.41648,0.28982 24.62486,0.22324 41.77242,-0.33884 83.70693,-3.425129 124.44305,-13.107723 12.61864,-3.528039 25.3891,-6.554269 37.43079,-11.881962 5.2573,-2.32602 10.21273,-5.287293 15.22026,-8.111133 11.71795,-6.607963 22.87599,-14.213957 33.31373,-22.69784 3.41579,-2.806615 6.83164,-5.613542 10.24743,-8.420157 3.3273,-2.800443 6.63029,-5.629678 9.98182,-8.401038 2.81527,-2.327917 15.00644,-12.373221 18.8774,-14.851807 10.49804,-6.7219048 13.82324,-7.6251264 23.72775,-11.3316081 -0.88851,0.017835 -1.77694,0.016748 -2.66547,0.029972 -2.04104,0.7476019 -4.12148,1.4015256 -6.09317,2.3140707 -4.29268,1.9867523 -8.38497,4.4000434 -12.3951,6.9086224 -11.31049,7.07538 -14.814,10.115261 -24.55561,18.179252 -3.35518,2.777376 -6.66484,5.608896 -9.99732,8.41344 -3.41331,2.80417 -6.82693,5.608755 -10.24021,8.412923 -10.44353,8.456557 -21.58614,16.078157 -33.31528,22.646163 -3.10382,1.738071 -6.2346,3.458213 -9.51673,4.830196 -15.1748,6.343319 -21.42285,7.547473 -37.66385,12.148095 -40.77586,9.763183 -82.77826,13.015584 -124.61616,13.326314 -8.17962,0.0608 -16.35871,-0.18317 -24.53804,-0.27491 -22.5947,-0.61921 -45.17461,-2.365077 -67.48425,-6.052864 -3.43382,-0.567613 -6.86758,-1.146738 -10.27586,-1.851567 -3.00199,-0.620799 -5.96513,-1.415995 -8.94778,-2.123901 -10.81669,-3.041825 -21.22412,-7.426597 -31.08337,-12.80542 -4.89328,-2.66959 -10.88173,-6.4236 -15.6192,-9.327079 -15.46381,-9.933794 -30.477,-20.54127 -45.83183,-30.637407 -11.88116,-7.585811 -23.72775,-15.27821 -36.09496,-22.064286 -2.86498,-1.572065 -6.38016,-3.333879 -9.75909,-5.057056 -2.6003,-3.0072277 -5.30628,-5.9190349 -7.96489,-8.8738767 z m 685.66513,0.5265828 c -0.0321,0.00768 -0.30388,0.068112 -0.32401,0.072864 -1.85315,0.334417 -4.14657,0.6686447 -6.50297,1.0738362 4.70565,0.6350353 9.22046,1.3271708 17.21807,2.8148153 4.6197,0.8593155 9.22588,1.8005746 13.79968,2.8778605 5.76757,1.3584699 12.17947,2.9546269 17.51677,5.7949949 1.4099,0.750305 2.5687,1.899068 3.853,2.848405 0.538,0.96633 1.2688,1.847933 1.6144,2.898531 0.6375,1.937423 0.3765,5.280175 0.1483,7.152018 -0.6875,5.638372 -2.298,11.128486 -3.5368,16.653764 -1.7434,6.506821 -3.3962,13.047964 -6.3908,19.125964 -2.5549,5.185786 -6.0756,9.723979 -10.4454,13.506153 -0.72425,0.654097 -1.33861,1.457093 -2.17398,1.962154 -9.52061,5.756251 -20.56393,7.491098 -31.54898,7.027995 -3.06282,-0.12912 -6.10053,-0.610249 -9.15086,-0.91519 -8.96061,-1.684999 -10.01042,-1.637019 -18.80144,-4.283459 -11.77364,-3.544334 -22.90328,-8.775585 -34.14468,-13.682886 -4.36984,-1.90971 -12.46382,-5.484023 -16.86305,-7.255888 -6.84159,-2.755577 -13.89032,-5.453607 -21.23954,-6.495727 -1.87106,-0.265316 -3.76901,-0.2852 -5.6534,-0.427881 -1.8169,0.140229 -3.65098,0.135545 -5.45083,0.420646 -3.78693,0.599856 -7.78411,1.994148 -11.32799,3.370854 -7.94009,3.084515 -15.45147,7.100665 -22.71489,11.536246 -2.13918,1.371566 -4.35065,2.636953 -6.4177,4.114995 -11.24564,8.041206 -20.29683,18.737438 -28.45562,29.774409 -1.88328,2.61653 -3.8153,5.19868 -5.64979,7.84965 -4.05606,5.86138 -7.88522,11.87839 -11.74657,17.87333 0.71469,0.0486 1.42848,0.10813 2.14302,0.15864 4.21665,-6.52006 8.39586,-13.06581 12.82403,-19.44067 1.84026,-2.64926 3.77856,-5.22897 5.66787,-7.84345 8.19343,-11.032211 17.29578,-21.718552 28.58947,-29.723248 2.07034,-1.467416 4.28535,-2.719697 6.42803,-4.079338 5.27915,-3.056046 10.7731,-5.729344 16.45584,-7.949902 3.49435,-1.365422 7.50859,-2.764935 11.24273,-3.380155 1.78546,-0.294166 3.60548,-0.308 5.40845,-0.461988 1.87598,0.125394 3.76438,0.128135 5.62808,0.376205 7.35824,0.979424 14.43858,3.607934 21.29534,6.327779 5.15757,2.04583 11.78134,4.997312 16.87391,7.226432 11.25233,4.921104 22.39638,10.144775 34.18396,13.694771 8.82142,2.656684 9.84074,2.610604 18.82676,4.324284 11.43368,1.587465 23.29814,1.65239 34.20876,-2.625679 5.94554,-2.331244 9.54357,-5.220573 14.98877,-8.825301 4.3601,-3.846735 7.8958,-8.435286 10.4298,-13.674618 2.9467,-6.092944 4.5537,-12.675942 6.2808,-19.179708 1.2435,-5.556361 2.9037,-11.064527 3.6204,-16.730761 0.2412,-1.907126 0.52,-5.313713 -0.1323,-7.285344 -0.3629,-1.096932 -1.1265,-2.017395 -1.6898,-3.026172 -1.3329,-0.983047 -2.5332,-2.177706 -3.9987,-2.949174 -5.3647,-2.824051 -12.0775,-4.4354241 -17.8361,-5.7469356 -4.62202,-1.0525866 -9.27627,-1.9660766 -13.9418,-2.80448 -6.25492,-1.1240201 -9.39513,-1.5330181 -13.10824,-2.0696413 z M 6.5985636,5.5510824 c -0.00398,0.00273 -0.0079,0.00554 -0.011885,0.00827 C 6.6709206,5.9548165 6.7608769,6.3490108 6.853329,6.7427427 6.841231,6.6624307 6.859329,6.6019181 6.846099,6.5195005 6.7932768,6.1905573 6.6873091,5.8555351 6.5985636,5.5510824 Z m 0.4294312,6.4481856 c -0.062083,0.553732 -0.1253466,1.10739 -0.1850016,1.661397 1.96e-4,0.0011 8.444e-4,0.002 0.00103,0.0031 -0.016741,0.218905 0.158204,-1.048591 0.1870687,-1.577164 0.00183,-0.03359 -0.00489,-0.05412 -0.0031,-0.08733 z M 20.489189,263.01702 c -0.2218,0.0832 -0.443784,0.16591 -0.665593,0.24908 0.014,0.41549 0.03306,0.83083 0.04237,1.24644 0.01213,0.53765 0.0014,1.13113 0.0088,1.69602 0.120849,-0.14545 0.201039,-0.32301 0.338997,-0.45476 0.05378,-0.49168 0.108929,-0.98317 0.157613,-1.47536 0.04157,-0.42026 0.07661,-0.84112 0.117823,-1.26142 z" />
    <path
       style="fill:#87aade;stroke-width:2.77778"
       d="m 1918.0556,337.07753 c -52.1955,-9.69172 -205.1659,-46.93934 -209.2267,-50.9458 -0.4914,-0.48476 11.0266,-15.69758 25.5955,-33.80626 28.7628,-35.75128 62.4382,-64.11433 92.6988,-78.07551 20.2571,-9.34587 45.3461,-9.62922 77.0435,-0.8701 23.8108,6.57981 159.6593,55.22688 163.29,58.47385 6.4762,5.79166 -120.4981,109.36924 -132.5347,108.1134 -1.6376,-0.17087 -9.2276,-1.47118 -16.8664,-2.88958 z"
       id="path18"
       transform="scale(0.26458333)" />
    <path
       style="fill:#87aade;stroke-width:2.77778"
       d=""
       id="path19"
       transform="scale(0.26458333)" />
    <path
       style="fill:#7137c8;stroke-width:2.77778"
       d="m 2726.3889,462.61875 c -3.0556,-1.26881 -22.4306,-16.58403 -43.0556,-34.03383 -20.625,-17.44981 -56.25,-47.02886 -79.1666,-65.73123 -22.9167,-18.70236 -43.7925,-35.74286 -46.3908,-37.8678 -4.0467,-3.30958 -5.9297,-3.26206 -13.133,0.33144 -4.6249,2.30723 -11.6426,4.78134 -15.5948,5.498 -3.9523,0.7167 -21.1674,4.31589 -38.2559,7.99823 -37.214,8.01911 -99.4159,18.76644 -100.771,17.41133 -0.5318,-0.53183 9.9333,-4.49864 23.2559,-8.81511 21.6105,-7.00172 57.4035,-20.37814 99.805,-37.29875 l 14.471,-5.77475 8.563,7.20528 c 4.7096,3.96291 9.1945,6.57377 9.9663,5.80191 0.7719,-0.77183 -28.3434,-23.83294 -64.7006,-51.24691 C 2332.2503,153.64883 2244.1106,94.959089 2139.33,38.333849 c -33.9387,-18.34108 -41.0551,-23.101118 -32.3856,-21.662215 22.1217,3.67157 123.1417,61.542402 209.7223,120.142576 63.5126,42.98713 209.2773,149.96578 245.1706,179.93396 2.6911,2.24683 6.8274,4.08516 9.1917,4.08516 2.3644,0 3.6089,1.11634 2.7657,2.48075 -0.8433,1.36442 7.5205,9.73939 18.586,18.61103 20.8905,16.74853 136.4868,113.00253 143.6312,119.59781 3.5714,3.29694 3.5714,3.73339 0,3.57877 -2.2371,-0.0968 -6.5675,-1.21416 -9.623,-2.48294 z m -170.035,-153.51028 c -13.4602,-10.47733 -14.3148,-12.66414 -5.6595,-14.48191 7.5373,-1.583 91.7077,-7.2279 103.4723,-6.9394 7.3079,0.17922 6.4534,0.94931 -6.9445,6.25859 -8.4028,3.32983 -17.1528,7.28511 -19.4444,8.7895 -2.2917,1.50439 -5.1042,2.91064 -6.25,3.125 -1.1459,0.21436 -2.7084,0.70225 -3.4722,1.08419 -0.7639,0.38195 -2.3264,0.95864 -3.4723,1.28159 -1.1458,0.32291 -3.9583,1.31008 -6.25,2.19372 -2.2916,0.88364 -8.5416,2.25758 -13.8889,3.05322 -5.3472,0.79561 -13.4722,2.1885 -18.0555,3.09531 -6.654,1.31644 -10.6915,-0.18686 -20.035,-7.45981 z"
       id="path20"
       transform="scale(0.26458333)" />
    <path
       style="fill:#7137c8;stroke-width:2.77778"
       d="m 1325,356.20676 c -135.304,-49.8899 -199.8312,-84.30261 -307.6822,-164.08865 l -45.18228,-33.42492 16.01558,-4.97714 c 8.80856,-2.73743 30.3811,-8.20915 47.939,-12.15938 34.707,-7.80851 44.0307,-7.76466 102.7988,0.48345 51.2243,7.18934 41.8721,-0.48515 102.5136,84.12328 29.5137,41.17818 64.2382,88.19162 77.1655,104.47431 12.9273,16.2827 23.1004,29.96433 22.607,30.40362 -0.4935,0.4393 -7.7722,-1.73626 -16.175,-4.83457 z"
       id="path21"
       transform="scale(0.26458333)" />
    <path
       style="fill:#7137c8;stroke-width:2.77778"
       d="M 1101.3889,387.91143 C 1080,375.96015 1024.375,343.67963 977.77778,316.17694 885.04333,261.44306 813.30372,220.14277 763.88889,193.04173 c -36.14149,-19.82141 -65.05298,-38.6369 -62.81204,-40.87784 1.9943,-1.9943 80.3128,40.35392 169.35885,91.57538 39.50352,22.72339 72.21412,40.92573 72.69021,40.44964 0.70958,-0.70958 -40.53902,-24.8568 -143.71422,-84.1313 l -10.31053,-5.92343 35.31053,-4.84546 c 19.42079,-2.665 56.13976,-9.29224 81.59771,-14.72718 l 46.28718,-9.88172 13.43504,9.20444 c 7.38927,5.06245 28.43505,20.41126 46.76838,34.10848 90.1113,67.32405 176.1501,112.56336 295.6955,155.47708 l 26.2511,9.42345 -15.6616,4.55295 c -28.0649,8.15868 -159.5061,32.40152 -174.7758,32.23541 -2.0523,-0.0223 -21.2314,-9.81891 -42.6203,-21.7702 z m 54.1667,17.68411 c 0,-0.74189 -7.8125,-5.27646 -17.3612,-10.0768 -21.1973,-10.65648 -58.8423,-32.18773 -128.7427,-73.63505 -29.17648,-17.30018 -55.42647,-32.25593 -58.33328,-33.23499 -9.75556,-3.28585 131.26478,79.89617 175.27048,103.38477 29.6725,15.83807 29.1667,15.60285 29.1667,13.56207 z"
       id="path22"
       transform="scale(0.26458333)" />
    <path
       style="fill:#7137c8;stroke-width:2.77778"
       d=""
       id="path23"
       transform="scale(0.26458333)" />
    <path
       style="fill:#7137c8;stroke-width:2.77778"
       d="m 301.38889,257.05581 c -15.27778,-2.7145 -33.28334,-6.4502 -40.01235,-8.30155 l -12.23457,-3.3661 33.0679,-33.20873 c 25.08052,-25.18731 34.40982,-32.89655 38.62346,-31.91634 3.05556,0.71082 29.93056,3.43349 59.72223,6.0504 29.79166,2.6169 54.55885,5.07577 55.03819,5.46416 1.17507,0.95209 -11.07422,46.62082 -13.13285,48.96291 -0.89516,1.01841 -20.37757,5.77785 -43.29423,10.57653 -22.91667,4.79868 -43.54167,9.16346 -45.83334,9.69952 -2.29166,0.53605 -16.66666,-1.24631 -31.94444,-3.9608 z"
       id="path24"
       transform="scale(0.26458333)" />
    <path
       style="fill:#7137c8;stroke-width:2.77778"
       d="m 75,311.07644 c 0,-0.41253 -2.478786,-19.30007 -5.508413,-41.9723 -4.364209,-32.65958 -4.796957,-41.92254 -2.083333,-44.59365 1.883794,-1.85428 14.599953,-12.08061 28.258132,-22.72518 l 24.833054,-19.35377 16.77198,12.90574 c 19.63414,15.10813 60.57879,36.67216 83.12671,43.77976 16.18484,5.10182 20.00778,11.58376 5.90149,10.0062 -4.31192,-0.48222 -18.55581,-5.26377 -31.65307,-10.62565 -30.74278,-12.58577 -34.25378,-13.66036 -22.42433,-6.86325 5.34722,3.07247 19.09722,8.9764 30.55556,13.11986 11.45833,4.14345 21.82595,8.38642 23.03915,9.42883 1.2132,1.0424 -5.84591,9.42728 -15.68692,18.63306 l -17.89275,16.73778 -46.81307,8.79503 c -25.7472,4.83726 -52.125579,9.84861 -58.618634,11.13632 C 80.3125,310.77293 75,311.48898 75,311.07644 Z m 81.94444,-88.99317 c -3.05555,-2.23201 -14.14015,-10.36257 -24.63244,-18.06792 -10.49229,-7.70535 -19.58881,-13.4978 -20.21449,-12.87212 -1.34636,1.34636 13.13321,12.61375 33.15383,25.79889 14.21015,9.35849 22.39001,12.95496 11.6931,5.14115 z"
       id="path25"
       transform="scale(0.26458333)" />
    <path
       style="fill:#7137c8;stroke-width:2.77778"
       d="m 80.555556,459.74631 c 0,-21.05767 -18.715528,-186.18542 -26.133824,-230.57964 -9.24403,-55.3202 -16.185351,-117.10696 -13.765432,-122.5302 2.206002,-4.94383 5.313582,11.71986 14.333263,76.85889 6.334118,45.74422 12.904165,95.04631 14.600104,109.5602 1.695941,14.51388 3.701347,28.26388 4.456461,30.55555 0.755116,2.29167 1.803614,11.04167 2.33,19.44445 0.526386,8.40277 2.910775,34.65277 5.298644,58.33333 2.387867,23.68055 4.929006,48.99305 5.646972,56.25 1.017584,10.28536 0.415595,13.19444 -2.730397,13.19444 -2.855111,0 -4.035791,-3.24352 -4.035791,-11.08702 z"
       id="path26"
       transform="scale(0.26458333)" />
    <path
       style="fill:#aa87de;stroke-width:2.77778"
       d="M 2484.3735,253.4822 C 2427.798,210.96844 2338.4094,147.17058 2296.1768,119.16378 l -32.9899,-21.877455 11.6184,-5.06642 c 21.4259,-9.343168 55.8332,-16.599693 71.1923,-15.014492 18.6019,1.919882 63.3959,16.984376 114.6291,38.550487 36.9679,15.56124 199.3671,95.89769 222.5507,110.09244 8.5142,5.21308 8.9724,6.06631 4.1666,7.75872 -2.9698,1.04584 -33.5246,12.87728 -67.8996,26.2921 -40.203,15.6892 -67.5792,24.80588 -76.7375,25.55472 l -14.2376,1.16416 z"
       id="path27"
       transform="scale(0.26458333)" />
    <path
       style="fill:#aa87de;stroke-width:2.77778"
       d="M 844.44444,418.904 C 719.62045,409.33012 638.90088,386.60214 584.32947,345.66419 558.68718,326.42805 549.76299,317.79642 528.54642,291.7099 l -18.03851,-22.17899 7.94049,-3.22354 c 4.36727,-1.77295 20.76616,-6.10928 36.44197,-9.6363 l 28.50149,-6.41276 15.62078,5.30967 c 23.50182,7.98851 103.79771,48.28154 139.17421,69.83858 28.97005,17.6532 107.93709,72.55008 127.09093,88.35198 l 8.33333,6.875 -8.33333,-0.3854 c -4.58334,-0.21197 -13.95834,-0.81683 -20.83334,-1.34414 z"
       id="path28"
       transform="scale(0.26458333)" />
    <path
       style="fill:#aa87de;stroke-width:2.77778"
       d=""
       id="path29"
       transform="scale(0.26458333)" />
    <path
       style="fill:#aa87de;stroke-width:2.77778"
       d="M 700,147.46207 C 661.04167,127.24092 608.54167,100.01756 583.33333,86.965719 558.125,73.913872 525.96604,58.382195 511.86897,52.450879 497.7719,46.519562 486.2094,40.104167 486.17453,38.194444 c -0.0471,-2.578328 8.08464,-3.472222 31.58671,-3.472222 82.83615,0 193.7472,20.543079 276.6832,51.2476 33.37684,12.356747 121.42159,53.331768 119.15459,55.453168 -0.60447,0.56564 -15.47403,4.87185 -33.04347,9.56936 -17.56945,4.69751 -48.76739,14.20844 -69.32878,21.1354 -20.56139,6.92696 -38.06139,12.48323 -38.88889,12.34726 C 771.51039,184.33904 738.95833,167.68322 700,147.46207 Z"
       id="path30"
       transform="scale(0.26458333)" />
    <path
       style="fill:#aa87de;stroke-width:2.77778"
       d="m 1430.3614,449.30556 c -69.0512,-67.03142 -106.6523,-112.76062 -196.9988,-239.58334 -51.5737,-72.39583 -68.9222,-95.5038 -99.809,-132.944595 L 1109.8132,47.999692 1072.2677,29.00647 c -27.6382,-13.981421 -35.5115,-19.03162 -29.8372,-19.1387356 4.2395,-0.080032 16.3958,4.2294876 27.0139,9.5767096 10.6182,5.347223 20.0256,9.722223 20.9054,9.722223 0.8798,0 -1.7374,-4.375 -5.8159,-9.722223 -6.5837,-8.631709 -6.8333,-9.6945034 -2.2247,-9.475104 2.8549,0.135915 11.4408,7.431313 19.0797,16.211996 9.9397,11.425464 19.6054,18.847275 33.9936,26.10212 38.6763,19.501477 108.6033,62.988314 212.8218,132.351604 152.4807,101.48455 185.4673,120.88975 243.7925,143.41736 66.1878,25.56444 176.7343,43.63047 314.3651,51.37505 74.1632,4.17322 279.5683,1.67675 345.027,-4.19341 45.6247,-4.09153 66.8959,-5.10362 61.1111,-2.90767 -7.528,2.85761 -116.8636,9.92478 -193.2353,12.49022 -165.8551,5.57128 -343.9709,-5.33617 -455.1503,-27.87253 -14.3899,-2.91686 -27.0957,-4.72725 -28.235,-4.02308 -1.1394,0.70414 -2.4908,0.335 -3.0033,-0.82036 -0.5124,-1.15536 -12.1817,-5.70331 -25.9317,-10.10658 -63.5408,-20.34814 -116.4276,-50.05098 -250,-140.40756 C 1236.9071,120.38582 1144.9996,62.5 1136.1116,62.5 c -1.8304,0 2.7882,7.1875 10.2634,15.972222 22.177,26.061738 38.6521,48.068158 99.385,132.751998 31.7301,44.24334 67.79,93.36 80.1332,109.14811 45.8272,58.61761 105.1252,122.17645 150.1923,160.9845 12.6285,10.87461 13.0839,11.69873 6.4648,11.69873 -5.4334,0 -17.8001,-10.367 -52.1889,-43.75 z"
       id="path31"
       transform="scale(0.26458333)" />
    <path
       style="fill:#aa87de;stroke-width:2.77778"
       d="m 2156.3324,370.7183 c -38.798,-3.18286 -124.1255,-14.09858 -126.3556,-16.16432 -5.3073,-4.91612 4.9067,-8.73789 33.9614,-12.70735 17.5423,-2.39663 68.5891,-8.70869 113.4373,-14.0268 l 81.5421,-9.66929 24.0134,16.65311 c 13.2074,9.15921 27.6121,19.62575 32.0103,23.25897 l 7.9969,6.60587 -10.7746,1.66851 c -45.3159,7.01737 -103.6918,8.65865 -155.8312,4.3813 z"
       id="path32"
       transform="scale(0.26458333)" />
    <path
       style="fill:#aa87de;stroke-width:2.77778"
       d="m 2263.7763,303.66527 c -19.548,-11.94238 -80.0918,-41.21801 -113.6141,-54.9375 -19.0081,-7.77931 -35.1144,-14.69847 -35.7918,-15.37591 -1.9305,-1.93043 35.1283,-44.49462 64.5584,-74.14923 14.6876,-14.79967 36.0963,-33.18992 47.5748,-40.86722 l 20.87,-13.95872 19.3363,12.50854 c 20.1241,13.01826 86.8483,58.59726 101.3457,69.22883 126.1991,92.54751 135.3183,99.65187 130.248,101.46985 -2.8864,1.03495 -17.748,2.71081 -33.0258,3.72413 -37.9052,2.51411 -179.2083,15.37915 -186.2238,16.95486 -3.1175,0.70021 -9.9925,-1.36872 -15.2777,-4.59763 z"
       id="path33"
       transform="scale(0.26458333)" />
    <path
       style="fill:#aa87de;stroke-width:2.77778"
       d="m 3336.1111,408.54749 c 0,-0.6461 11.9884,-14.0836 26.6409,-29.86111 14.6525,-15.77751 35.4198,-39.49496 46.1496,-52.70545 l 19.5086,-24.01906 18.4338,5.32553 c 10.1386,2.92905 37.1838,10.37694 60.1004,16.55087 22.9167,6.17393 43.5417,11.85786 45.8334,12.63096 6.925,2.33617 -12.0572,16.02658 -47.2222,34.05763 -36.3699,18.64883 -64.8755,28.30045 -102.5729,34.72971 -23.7637,4.05289 -66.8716,6.17433 -66.8716,3.29092 z"
       id="path34"
       transform="scale(0.26458333)" />
    <path
       style="fill:#aa87de;stroke-width:2.77778"
       d="m 3372.2222,469.69336 c -47.2869,-7.24595 -47.1786,-7.03875 -8.3333,-15.93532 19.0972,-4.37376 44.7222,-11.24123 56.9444,-15.26104 44.0485,-14.48729 112.9341,-47.58698 163.6934,-78.6551 l 17.4668,-10.69085 46.9199,10.46392 c 25.806,5.75515 64.7324,14.05208 86.5033,18.43762 21.7708,4.38555 39.5833,8.74737 39.5833,9.69294 0,2.68519 -88.7807,36.67246 -131.9444,50.51134 -43.8299,14.05246 -74.5662,21.99194 -111.1112,28.7011 -33.2016,6.09537 -127.2804,7.70655 -159.7222,2.73539 z"
       id="path35"
       transform="scale(0.26458333)" />
    <path
       style="fill:#aa87de;stroke-width:2.77778"
       d="m 3658.5521,280.26393 c -9.8102,-2.14526 -18.1539,-4.2176 -18.5415,-4.60521 -0.3876,-0.38761 13.655,-20.06939 31.2058,-43.73729 36.5174,-49.24498 60.7405,-75.01384 88.5058,-94.15339 31.0363,-21.39439 35.9603,-23.23757 65.9722,-24.69531 25.6518,-1.24595 27.0834,-1.02245 27.0834,4.22829 0,8.74599 -42.7896,57.37198 -82.121,93.32208 -45.0727,41.19781 -85.497,74.18452 -90.4647,73.82021 -2.0918,-0.15341 -11.8298,-2.03413 -21.64,-4.17938 z"
       id="path36"
       transform="scale(0.26458333)" />
    <path
       style="fill:#aa87de;stroke-width:2.77778"
       d="m 3409.7222,249.82259 c -48.3057,-21.55399 -88.5999,-37.11846 -111.3292,-43.00328 -25.7625,-6.67015 -62.3473,-7.45029 -83.1152,-1.77237 -13.5832,3.71364 -14.4178,3.57762 -37.9208,-6.18042 -13.2176,-5.4877 -24.1383,-11.22763 -24.2683,-12.75541 -0.1301,-1.52778 12.3668,-16.73911 27.7707,-33.80295 l 28.0071,-31.02518 17.0945,6.44967 c 69.3957,26.18258 121.0446,48.64216 183.7612,79.90879 27.5,13.70979 50.3847,25.2754 50.8549,25.70133 1.9059,1.72647 -16.8463,29.14686 -19.8431,29.01574 -1.7787,-0.0778 -15.734,-5.71898 -31.0118,-12.53592 z"
       id="path37"
       transform="scale(0.26458333)" />
    <path
       style="fill:#aa87de;stroke-width:2.77778"
       d=""
       id="path38"
       transform="scale(0.26458333)" />
    <path
       style="fill:#aa87de;stroke-width:2.77778"
       d="m 82.970425,375.79218 c -0.199599,-0.4357 -1.803723,-12.98142 -3.564719,-27.87938 -2.809017,-23.76417 -2.679302,-27.24063 1.057353,-28.33791 6.404457,-1.8807 93.139501,-18.2012 96.118281,-18.0861 3.13712,0.12121 -1.83129,4.43914 -46.90754,40.76618 -32.131089,25.8945 -45.730759,35.66029 -46.703375,33.53721 z"
       id="path39"
       transform="scale(0.26458333)" />
    <path
       style="fill:#afc6e9;stroke-width:2.77778"
       d="m 75.694444,113.26834 c -4.965277,-0.61618 -8.978744,-1.97863 -8.918814,-3.02767 0.05993,-1.04903 17.117001,-14.241823 37.9046,-29.317309 l 37.79564,-27.409971 23.90095,1.968116 c 13.14553,1.082464 33.27596,3.455756 44.73429,5.273983 l 20.83333,3.305867 -50,16.171472 c -27.5,8.894308 -60.5554,20.418002 -73.45646,25.608212 -12.901049,5.1902 -23.526048,9.23669 -23.611107,8.99219 -0.08506,-0.2445 -4.217151,-0.9487 -9.182429,-1.56489 z"
       id="path40"
       transform="scale(0.26458333)" />
    <path
       style="fill:#afc6e9;stroke-width:2.77778"
       d="m 1350.0156,345.58621 c -20.8953,-25.10831 -49.9539,-63.94945 -94.3716,-126.14177 -21.8228,-30.55555 -41.0728,-57.29836 -42.778,-59.42846 -3.9857,-4.97906 1.084,-3.49807 39.9118,11.65923 33.803,13.19578 198.5818,95.50281 224.5284,112.15201 l 17.584,11.28313 -19.3172,12.84203 c -25.3879,16.87788 -60.645,35.43028 -87.4509,46.01692 -11.88,4.69189 -22.1469,8.5307 -22.8154,8.5307 -0.6684,0 -7.5494,-7.61121 -15.2911,-16.91379 z"
       id="path41"
       transform="scale(0.26458333)" />
    <path
       style="fill:#afc6e9;stroke-width:2.77778"
       d="M 887.5,387.22418 C 701.0308,266.25756 650.51959,233.27671 650.99557,232.80072 c 0.29358,-0.29357 20.90018,-6.90593 45.79247,-14.69413 l 45.25869,-14.16036 15.78219,13.79574 c 23.66132,20.68315 56.65615,55.35475 95.46228,100.31359 19.12112,22.15277 50.01397,54.96527 68.65078,72.91666 45.33371,43.66645 37.29935,42.79214 -34.44198,-3.74804 z"
       id="path42"
       transform="scale(0.26458333)" />
    <path
       style="fill:#afc6e9;stroke-width:2.77778"
       d="m 377.77778,174.88337 c -17.56945,-1.99717 -35.48611,-3.72546 -39.81482,-3.84063 -4.98381,-0.1326 -7.4555,-1.48289 -6.7392,-3.68163 1.43844,-4.41542 41.42895,-38.17429 45.23465,-38.18582 2.69682,-0.008 37.79656,34.74619 45.57875,45.13027 4.4179,5.89496 2.71228,5.91723 -44.25938,0.57781 z"
       id="path43"
       transform="scale(0.26458333)" />
    <path
       style="fill:#afc6e9;stroke-width:2.77778"
       d="m 213.5449,233.75512 c -28.49921,-10.84539 -60.85573,-28.89516 -77.50776,-43.23693 l -12.03815,-10.368 23.81458,-16.92498 23.81459,-16.92498 39.62607,10.87485 c 21.79433,5.98117 50.9905,12.98575 64.88036,15.56574 13.88987,2.58 25.81708,5.12321 26.50492,5.65159 1.38465,1.06364 -61.41639,64.71806 -63.70531,64.57099 -0.78881,-0.0507 -12.21399,-4.19441 -25.3893,-9.20828 z"
       id="path44"
       transform="scale(0.26458333)" />
    <path
       style="fill:#afc6e9;stroke-width:2.77778"
       d="m 3268.5004,406.57821 c -28.5029,-3.6623 -70.3706,-14.9732 -92.1769,-24.90228 -10.6585,-4.85316 -32.7492,-13.6089 -49.0905,-19.4572 -16.3412,-5.8483 -43.6869,-17.64227 -60.7682,-26.20884 l -31.0568,-15.57557 9.3794,-9.71048 c 27.7976,-28.77917 82.6075,-64.60698 124.9444,-81.673 l 22.2098,-8.95281 39.4459,15.43883 c 41.5376,16.25753 171.7927,60.29647 178.3404,60.29647 2.1082,0 4.6003,1.24136 5.538,2.75858 2.1491,3.47732 -34.2478,48.51619 -67.9203,84.04698 l -25.6669,27.08333 -17.0893,-0.35138 c -9.3992,-0.19326 -25.6392,-1.44994 -36.089,-2.79263 z"
       id="path45"
       transform="scale(0.26458333)" />
    <path
       style="fill:#afc6e9;stroke-width:2.77778"
       d="m 2934.0797,264.47796 c -47.7145,-26.29621 -86.777,-48.63421 -86.8055,-49.63999 -0.029,-1.00579 5.553,-8.70945 12.4036,-17.11925 12.1841,-14.95724 12.9864,-15.41474 36.8056,-20.98756 94.054,-22.00521 129.1079,-20.73055 205.7076,7.48014 l 28.5799,10.52562 -27.631,32.07478 c -36.5667,42.44764 -75.5205,84.15515 -79.2837,84.88848 -1.6626,0.32399 -42.062,-20.92601 -89.7765,-47.22222 z"
       id="path46"
       transform="scale(0.26458333)" />
    <path
       style="fill:#afc6e9;stroke-width:2.77778"
       d="m 3135.9475,181.93282 c -11.2147,-6.20674 -73.6611,-25.30406 -94.5606,-28.91845 -29.0244,-5.01953 -60.0203,-2.51574 -116.3869,9.40151 -20.625,4.36061 -37.889,7.54527 -38.3644,7.07701 -1.9419,-1.91254 46.8719,-42.14136 67.9142,-55.97009 26.756,-17.583609 64.0734,-34.169349 81.5613,-36.249911 14.4595,-1.720271 71.6903,11.512322 128.9187,29.807921 l 35.3708,11.30781 -11.8482,13.02791 c -42.2492,46.45632 -48.7175,52.6678 -52.6049,50.51629 z"
       id="path47"
       transform="scale(0.26458333)" />
    <path
       style="fill:#afc6e9;stroke-width:2.77778"
       d=""
       id="path48"
       transform="scale(0.26458333)" />
    <path
       style="fill:#afc6e9;stroke-width:2.77778"
       d="m 3720.857,263.10596 c 15.2647,-12.33812 39.6291,-33.0186 54.143,-45.95662 14.5139,-12.93801 26.8223,-23.11435 27.3521,-22.61407 0.5297,0.50028 -4.6125,12.67994 -11.4272,27.06592 -21.2635,44.88759 -40.0687,60.16855 -77.0124,62.57962 l -20.8097,1.35811 z"
       id="path49"
       transform="scale(0.26458333)" />
    <path
       style="fill:#afc6e9;stroke-width:2.77778"
       d="m 3739.3117,249.24559 c 54.9282,-46.25112 57.9105,-48.62944 57.9105,-46.1819 0,7.9368 -22.8824,46.38305 -34.6402,58.2012 -14.5191,14.59368 -24.291,18.68995 -52.1156,21.8463 l -13.1446,1.49111 z"
       id="path50"
       transform="scale(0.26458333)" />
    <path
       style="fill:#afc6e9;stroke-width:2.77778"
       d="m 2673.6111,405.0951 c -6.1111,-5.37051 -30.4008,-25.56279 -53.9771,-44.87171 l -42.866,-35.10714 27.5882,-8.61576 c 15.1735,-4.73867 39.4632,-13.66778 53.9771,-19.84248 l 26.3889,-11.22673 31.9445,2.40207 c 17.5694,1.32114 39.1547,3.3491 47.9673,4.50658 l 16.0229,2.10451 -16.0229,24.09224 c -21.0285,31.61874 -46.8589,64.10099 -65.1668,81.94871 l -14.745,14.37428 z"
       id="path51"
       transform="scale(0.26458333)" />
    <path
       style="fill:#e5d5ff;stroke-width:2.77778"
       d="m 1638.8889,434.48491 c -27.7809,-1.71197 -80.4169,-10.18354 -84.1253,-13.53964 -1.1995,-1.08551 4.4486,-6.37535 12.5512,-11.7552 8.1027,-5.37986 27.5578,-19.99938 43.2337,-32.48784 28.113,-22.39669 28.6425,-22.6685 38.8377,-19.9349 28.043,7.51912 161.4353,25.17711 190.1934,25.17711 7.259,0 13.1951,0.9375 13.1912,2.08334 -0.01,3.03899 -43.8468,20.84031 -79.1597,32.14538 -53.0834,16.99411 -85.2205,21.36226 -134.7222,18.31175 z"
       id="path52"
       transform="scale(0.26458333)" />
    <use
       id="use52"
       inkscape:spray-origin="#path52"
       xlink:href="#path52"
       transform="translate(-56.097005,-89.203913)" />
    <use
       id="use53"
       inkscape:spray-origin="#path52"
       xlink:href="#path52"
       transform="translate(277.57198,-5.419191)" />
    <use
       id="use54"
       inkscape:spray-origin="#path52"
       xlink:href="#path52"
       transform="translate(259.93309,-93.613635)" />
    <use
       id="use55"
       inkscape:spray-origin="#path52"
       xlink:href="#path52"
       transform="translate(-378.00673,-6.8890984)" />
    <use
       id="use56"
       inkscape:spray-origin="#path52"
       xlink:href="#path52"
       transform="translate(498.79304,-81.119422)" />
    <use
       id="use57"
       inkscape:spray-origin="#path52"
       xlink:href="#path52"
       transform="translate(-252.32964,-98.758311)" />
    <use
       id="use58"
       inkscape:spray-origin="#path52"
       xlink:href="#path52"
       transform="translate(-267.76367,12.219698)" />
    <path
       sodipodi:type="star"
       style="fill:#7137c8;stroke-width:0.264583"
       id="path58"
       inkscape:flatsided="false"
       sodipodi:sides="5"
       sodipodi:cx="520.38367"
       sodipodi:cy="6.92921"
       sodipodi:r1="42.949924"
       sodipodi:r2="21.474962"
       sodipodi:arg1="1.3923858"
       sodipodi:arg2="2.0207044"
       inkscape:rounded="0"
       inkscape:randomized="0"
       d="m 528.0058,49.197391 -16.96122,-22.930255 -28.50497,0.972739 16.56666,-23.2169202 -9.73365,-26.8092448 27.19998,8.581409 22.48925,-17.541762 0.24385,28.5205222 23.63276,15.9678388 -27.04927,9.045243 z"
       inkscape:transform-center-x="-2.355368"
       inkscape:transform-center-y="1.796164" />
    <path
       sodipodi:type="star"
       style="fill:#7137c8;stroke-width:0.264583"
       id="path59"
       inkscape:flatsided="false"
       sodipodi:sides="5"
       sodipodi:cx="4.850447"
       sodipodi:cy="112.94612"
       sodipodi:r1="44.627555"
       sodipodi:r2="22.313778"
       sodipodi:arg1="-0.44975961"
       sodipodi:arg2="0.17855892"
       inkscape:rounded="0"
       inkscape:randomized="0"
       d="M 45.039866,93.544333 26.809451,116.90931 35.721857,145.17305 7.866939,135.05507 -16.25939,152.26524 -15.244262,122.64702 -39.06756,105.01975 -10.585258,96.832658 -1.1825365,68.728231 15.405366,93.286559 Z"
       inkscape:transform-center-x="1.8642945"
       inkscape:transform-center-y="-2.4493833" />
    <path
       sodipodi:type="star"
       style="fill:#7137c8;stroke-width:0.264583"
       id="path60"
       inkscape:flatsided="false"
       sodipodi:sides="5"
       sodipodi:cx="976.32568"
       sodipodi:cy="95.623098"
       sodipodi:r1="63.204119"
       sodipodi:r2="31.60206"
       sodipodi:arg1="0.66104317"
       sodipodi:arg2="1.2893617"
       inkscape:rounded="0"
       inkscape:randomized="0"
       d="m 1026.216,134.42668 -41.11335,-8.44481 -30.26441,29.0807 -4.67323,-41.7107 -37.00961,-19.796733 38.22513,-17.333825 7.39121,-41.315755 28.29766,30.997807 41.5776,-5.737806 -20.7362,36.491524 z"
       inkscape:transform-center-x="5.4244659"
       inkscape:transform-center-y="-0.63903565" />
    <path
       sodipodi:type="star"
       style="fill:#7137c8;stroke-width:0.264583"
       id="path61"
       inkscape:flatsided="false"
       sodipodi:sides="5"
       sodipodi:cx="713.70863"
       sodipodi:cy="15.244262"
       sodipodi:r1="45.231344"
       sodipodi:r2="22.615672"
       sodipodi:arg1="1.4787495"
       sodipodi:arg2="2.107068"
       inkscape:rounded="0"
       inkscape:randomized="0"
       d="m 717.86614,60.284125 -15.71265,-25.598989 -29.99558,-1.56875 19.49061,-22.854145 -7.77718,-29.012263 27.75852,11.474352 25.18902,-16.361815 -2.33491,29.9456839 23.34485,18.9001051 -29.20156,7.033099 z"
       inkscape:transform-center-x="-1.2847462"
       inkscape:transform-center-y="3.0790581" />
    <path
       style="fill:#8d5fd3;stroke-width:2.61891"
       d="m 73.511112,290.11676 c -1.702548,-11.20274 -3.68573,-30.38596 -4.407071,-42.62939 l -1.31153,-22.26077 20.955629,-16.37322 20.95563,-16.37322 17.32557,13.11368 c 18.38796,13.9178 32.42202,22.11759 34.42552,20.11408 1.09184,-1.09183 -33.89356,-27.80488 -43.59077,-33.28365 -2.98276,-1.68522 -3.20598,-2.96997 -0.9178,-5.28249 2.2983,-2.32274 6.38151,-0.55209 17.02294,7.38184 19.54818,14.57452 51.88489,32.2657 78.1628,42.76232 14.26208,5.69693 20.27807,9.17504 16.7428,9.67977 -3.03488,0.43328 -18.20626,-4.03719 -33.71418,-9.93439 -15.50792,-5.89719 -28.75729,-10.16109 -29.44305,-9.47534 -1.72303,1.72303 20.78566,12.80266 40.52188,19.94639 9.00251,3.25856 16.36821,7.19896 16.36821,8.75646 0,1.55749 -7.09704,9.41956 -15.77121,17.47127 l -15.77121,14.63946 -52.97528,9.89037 c -29.13641,5.4397 -54.889597,10.41576 -57.229311,11.05791 -3.487313,0.95712 -4.811943,-2.50354 -7.349567,-19.20108 z"
       id="path78"
       transform="scale(0.26458333)" />
    <path
       style="fill:#8d5fd3;stroke-width:2.61891"
       d="m 319.50751,258.79599 c -23.53808,-3.85629 -61.86606,-12.0924 -63.51288,-13.64797 -2.51945,-2.37985 58.83946,-63.13519 63.75557,-63.12843 2.02712,0.003 27.84516,2.35753 57.37342,5.23276 29.52825,2.87523 54.65103,5.22998 55.8284,5.23276 2.31875,0.005 2.27449,0.2177 -5.81458,27.87398 -3.46981,11.86321 -7.15031,19.34853 -10.06438,20.46873 -5.9287,2.27906 -86.81484,19.86761 -89.20503,19.39747 -0.99728,-0.19615 -4.75951,-0.83934 -8.36052,-1.4293 z"
       id="path79"
       transform="scale(0.26458333)" />
    <path
       style="fill:#8d5fd3;stroke-width:2.61891"
       d="M 822.339,415.91713 C 669.57866,399.89462 594.27893,368.1455 532.23281,293.59776 l -19.59562,-23.54393 9.05463,-3.1348 c 4.98005,-1.72413 20.57946,-5.79794 34.66537,-9.0529 25.13699,-5.80863 25.88404,-5.83198 40.38499,-1.26237 24.12244,7.60159 124.85017,59.64653 160.12397,82.73434 28.52686,18.67173 90.71279,62.12836 106.06601,74.12082 4.87996,3.81174 3.98526,4.06834 -13.09457,3.75545 -10.08281,-0.18471 -22.45718,-0.76847 -27.49859,-1.29724 z"
       id="path80"
       transform="scale(0.26458333)" />
    <path
       style="fill:#8d5fd3;stroke-width:2.61891"
       d="m 1114.3479,393.15244 c -14.404,-7.70509 -78.0436,-44.36457 -141.42135,-81.46552 -63.37772,-37.10095 -138.21318,-80.43025 -166.30104,-96.28735 -76.2358,-43.03918 -86.96091,-49.43475 -85.44392,-50.95174 1.6351,-1.6351 37.85643,17.95594 142.4947,77.07115 42.18094,23.83006 77.33764,42.68236 78.12599,41.89401 1.48653,-1.48654 -23.39246,-16.56724 -100.43152,-60.87781 -25.71276,-14.78921 -43.74229,-26.6748 -41.90263,-27.62345 1.77596,-0.91579 13.83561,-3.0792 26.79924,-4.80757 12.96362,-1.72837 46.55119,-7.78914 74.63905,-13.46837 l 51.06882,-10.32589 17.54709,12.43541 c 9.65091,6.83948 34.98887,25.01389 56.30667,40.38759 83.2438,60.03286 151.4291,96.06673 258.9474,136.84592 23.9844,9.09674 42.5903,17.13941 41.3463,17.87259 -3.7487,2.20955 -49.0758,11.81362 -100.4709,21.28822 -69.8241,12.87191 -67.5029,12.55421 -69.3919,9.49774 -0.9397,-1.52047 -9.8407,-6.85977 -19.78,-11.86512 -9.9393,-5.00535 -53.1619,-29.54013 -96.0502,-54.52173 -42.88834,-24.9816 -80.63045,-46.82568 -83.87136,-48.54241 -9.00923,-4.77223 -6.94562,0.26823 2.65133,6.47599 17.39877,11.25434 114.61053,68.09604 152.51933,89.18115 21.606,12.01743 36.9267,21.83784 34.0459,21.82315 -2.8808,-0.0147 -17.023,-6.33087 -31.427,-14.03596 z"
       id="path81"
       transform="scale(0.26458333)" />
    <path
       style="fill:#5a2ca0;stroke-width:2.61891"
       d="m 1327.7894,355.66488 c -62.3788,-22.28423 -147.1138,-60.11194 -189.8713,-84.76304 -54.3287,-31.32236 -163.70056,-109.46392 -157.81927,-112.75525 8.85489,-4.95545 70.91237,-18.70648 89.72757,-19.88231 24.8371,-1.55217 96.4838,7.32329 108.255,13.41044 9.9144,5.12692 24.1623,22.21559 58.0494,69.62351 14.9291,20.88584 42.6124,58.5982 61.5184,83.80525 42.9444,57.25715 41.3376,54.56154 30.1402,50.5614 z"
       id="path82"
       transform="scale(0.26458333)" />
    <path
       style="fill:#5a2ca0;stroke-width:2.61891"
       d="m 1143.2501,395.40965 c -8.5907,-4.87936 -16.0546,-8.43638 -16.5865,-7.90449 -0.5319,0.5319 -2.9313,-0.8264 -5.3319,-3.01843 -4.8721,-4.44866 -107.6226,-63.7666 -111.7404,-64.50781 -1.4404,-0.25928 -3.2081,-1.22739 -3.9283,-2.15136 -2.908,-3.73077 -52.719,-31.58875 -54.06861,-30.23914 -2.91602,2.91602 2.23441,6.76066 35.77119,26.70207 18.79932,11.17834 33.62512,20.87979 32.94612,21.55878 -0.679,0.67899 -37.26828,-19.6931 -81.30953,-45.27131 -44.04126,-25.57821 -79.53767,-47.04318 -78.88091,-47.69994 0.65676,-0.65675 18.70581,8.36126 40.10902,20.04003 38.36145,20.93212 44.38931,23.66348 41.34218,18.73312 -2.32615,-3.76379 -59.36562,-37.65568 -63.37387,-37.65568 -1.91472,0 -3.48131,-0.85777 -3.48131,-1.90614 0,-1.04838 -11.49049,-8.46595 -25.53441,-16.4835 -14.04393,-8.01754 -30.72429,-18.07182 -37.06747,-22.34284 l -11.53304,-7.7655 8.91413,-1.46896 c 4.90278,-0.80793 15.39595,-2.66514 23.31816,-4.12714 7.92222,-1.46201 18.54658,-3.17725 23.60969,-3.81165 5.06312,-0.6344 14.49121,-2.43485 20.95132,-4.00099 6.4601,-1.56615 15.87043,-3.43366 20.91184,-4.15004 5.04141,-0.71637 11.52322,-2.08498 14.40403,-3.04136 2.88081,-0.95637 6.41634,-1.86201 7.85674,-2.01253 1.44041,-0.15051 9.29159,-1.22702 17.44708,-2.39222 l 14.82816,-2.11857 44.38745,31.69992 c 24.41314,17.43496 45.60394,31.69992 47.09084,31.69992 1.4869,0 3.4104,1.84246 4.2746,4.09436 0.8641,2.2519 2.758,3.36086 4.2085,2.46436 1.4506,-0.89651 2.6374,-0.47807 2.6374,0.92986 0,2.91996 18.6196,15.07199 21.6061,14.1012 1.0803,-0.35116 1.9642,0.42824 1.9642,1.732 0,2.36135 47.7991,31.41599 53.3757,32.44438 1.612,0.29727 3.5202,1.29033 4.2404,2.2068 1.8238,2.3209 58.0394,30.54235 62.8539,31.55407 2.1606,0.45403 4.5176,1.46512 5.2378,2.24688 1.7589,1.90921 39.5599,17.86733 44.5216,18.79525 2.1606,0.40408 4.5176,1.3462 5.2378,2.09362 0.7202,0.74741 15.7462,7.04417 33.3912,13.99279 17.6449,6.94863 32.0817,13.54082 32.0817,14.64932 0,3.04213 -143.8925,31.86323 -156.6328,31.37294 -2.4368,-0.0938 -11.4592,-4.1627 -20.0498,-9.04207 z"
       id="path83"
       transform="scale(0.26458333)" />
    <path
       style="fill:#5a2ca0;stroke-width:2.61891"
       d="M 711.03515,151.61252 C 605.94618,96.899842 543.74378,65.372734 515.92995,52.723995 480.5521,36.635414 483.40651,33.843431 532.74833,36.273486 c 56.17182,2.76643 68.94826,4.442348 68.59848,8.998242 -0.17862,2.326537 2.93737,4.879612 7.48384,6.131867 12.36427,3.405542 60.62909,9.795868 87.80047,11.6249 28.17927,1.896874 58.85536,9.81834 100.82819,26.036787 34.26608,13.240528 103.34518,44.859158 108.14819,49.501168 2.73642,2.64469 -0.80521,4.42535 -18.3324,9.21718 -11.94822,3.26657 -41.94958,12.30485 -66.66969,20.08506 -24.72012,7.78021 -46.52257,14.05466 -48.44991,13.94322 -1.92734,-0.11143 -29.43149,-13.70116 -61.12035,-30.19939 z"
       id="path84"
       transform="scale(0.26458333)" />
    <path
       style="fill:#5a2ca0;stroke-width:2.61891"
       d="m 80.342985,306.50491 c -2.209454,-2.20945 -4.787872,-10.79433 -5.729817,-19.07752 -0.941945,-8.28318 -2.277799,-17.10078 -2.968564,-19.59467 -0.690765,-2.49388 -1.522534,-12.81853 -1.848374,-22.94366 l -0.592438,-18.40932 11.229099,-10.09026 c 6.176005,-5.54963 11.229099,-9.45632 11.229099,-8.68152 0,0.7748 2.651651,-0.9784 5.892557,-3.89601 10.479403,-9.43401 11.774183,-9.17784 35.004593,6.92573 22.89818,15.87325 27.19461,17.9653 27.19461,13.24178 0,-1.92828 -23.17675,-20.47044 -41.68438,-33.34888 -0.60016,-0.41762 -0.37855,-1.47198 0.49249,-2.34301 0.87103,-0.87104 11.37943,4.92802 23.35198,12.8868 11.97256,7.95878 23.53605,14.85863 25.69666,15.333 2.1606,0.47437 4.51762,1.58806 5.23782,2.47487 2.82867,3.48302 23.0169,12.472 24.55541,10.9335 0.89855,-0.89856 1.63373,-0.49556 1.63373,0.89555 0,1.39111 4.41942,4.13424 9.82093,6.09583 5.40151,1.96159 8.5299,4.00361 6.95198,4.53782 -1.57791,0.53421 -12.47914,-2.5721 -24.22495,-6.90292 -16.37524,-6.03774 -21.35601,-7.01454 -21.35601,-4.18819 0,3.42914 6.13294,6.84609 11.49231,6.40289 1.27936,-0.1058 3.15317,1.14584 4.16401,2.78142 1.01085,1.63559 4.38352,3.16555 7.49482,3.39992 3.1113,0.23436 5.65691,1.22608 5.65691,2.2038 0,0.97773 2.65165,2.44352 5.89256,3.25732 3.24091,0.8138 8.24958,3.22511 11.13039,5.35847 5.08436,3.7652 4.85417,4.27422 -7.85675,17.37337 -12.91967,13.31428 -21.1765,18.43294 -31.42696,19.48256 -11.91371,1.21992 -31.59595,4.78037 -33.91364,6.13486 -1.36766,0.79928 -4.9032,1.61268 -7.85674,1.80756 -11.60573,0.76576 -44.819378,7.50903 -47.649966,9.67423 -1.842987,1.40976 -4.542345,0.74571 -7.013369,-1.72532 z"
       id="path85"
       transform="scale(0.26458333)" />
    <path
       style="fill:#7137c8;stroke-width:2.61891"
       d="m 2487.9683,254.77889 c -47.6527,-36.15565 -154.837,-112.70576 -191.7242,-136.92776 -15.3549,-10.08282 -27.9959,-19.052725 -28.0913,-19.933124 -0.3475,-3.209721 30.0589,-13.04947 52.0549,-16.845345 21.1614,-3.651872 23.8147,-3.57627 42.5369,1.212049 35.2204,9.007872 90.7683,31.30277 157.9601,63.39947 87.531,41.81243 164.6178,81.56199 164.3734,84.75857 -0.2183,2.85482 -60.629,27.04341 -108.2426,43.3406 -44.3522,15.1809 -43.599,15.34199 -88.8672,-19.00446 z"
       id="path86"
       transform="scale(0.26458333)" />
    <path
       style="fill:#8d5fd3;stroke-width:2.61891"
       d="m 1141.8465,393.3613 c -9.3626,-4.7287 -32.9328,-18.08805 -52.3783,-29.68745 -19.4454,-11.5994 -44.7834,-26.16677 -56.3066,-32.37192 -11.5232,-6.20515 -26.8439,-15.07726 -34.04591,-19.71579 -17.73887,-11.42491 -46.03451,-25.48451 -47.77866,-23.74036 -0.7797,0.7797 0.0731,3.21389 1.89514,5.4093 4.58664,5.52657 2.5859,5.03886 -11.40273,-2.77953 -13.5758,-7.58766 -15.26526,-9.83276 -5.56768,-7.39882 17.80714,4.46931 -1.92267,-9.90322 -52.93218,-38.55937 -15.27658,-8.58208 -63.34995,-37.63781 -72.25815,-43.67309 l -7.3392,-4.97229 20.43377,-3.19988 c 11.23857,-1.75994 41.05771,-7.13104 66.26476,-11.93579 25.20705,-4.80475 49.24229,-9.29815 53.41166,-9.98534 6.37272,-1.05035 14.71888,3.69317 52.37828,29.76906 24.6387,17.06018 46.6688,32.5446 48.9558,34.40982 2.287,1.86523 5.9518,4.56984 8.1441,6.01024 2.1923,1.4404 7.3922,4.8896 11.5553,7.66488 32.5649,21.70877 50.7932,32.11523 96.6125,55.1558 28.808,14.48635 65.3419,31.5124 81.1863,37.83568 57.0944,22.78551 72.3535,29.69395 70.2405,31.80073 -3.0278,3.01891 -119.129,26.05193 -138.2442,27.42593 -13.907,0.99962 -17.8426,0.10495 -32.8245,-7.46181 z"
       id="path87"
       transform="scale(0.26458333)" />
    <path
       sodipodi:type="star"
       style="fill:#7137c8;stroke-width:0.264583"
       id="path88"
       inkscape:flatsided="false"
       sodipodi:sides="5"
       sodipodi:cx="4.8504472"
       sodipodi:cy="112.94612"
       sodipodi:r1="44.627556"
       sodipodi:r2="22.313778"
       sodipodi:arg1="-0.44975961"
       sodipodi:arg2="0.17855892"
       inkscape:rounded="0"
       inkscape:randomized="0"
       d="M 45.039866,93.544333 26.809451,116.90931 35.721857,145.17305 7.866939,135.05507 -16.25939,152.26524 -15.244262,122.64702 -39.06756,105.01975 -10.585258,96.832658 -1.1825365,68.728231 15.405366,93.286559 Z"
       inkscape:transform-center-x="1.8642945"
       inkscape:transform-center-y="-2.4493833"
       transform="translate(447.62696,-4.157526)" />
    <path
       sodipodi:type="star"
       style="fill:#7137c8;stroke-width:0.264583"
       id="path89"
       inkscape:flatsided="false"
       sodipodi:sides="5"
       sodipodi:cx="323.59411"
       sodipodi:cy="9.007973"
       sodipodi:r1="37.558619"
       sodipodi:r2="18.77931"
       sodipodi:arg1="0.52143444"
       sodipodi:arg2="1.149753"
       inkscape:rounded="0"
       inkscape:randomized="0"
       d="m 356.1614,27.71684 -24.89194,-1.569685 -15.40469,19.615507 -6.19917,-24.158703 -23.41577,-8.589207 21.06064,-13.36121354 0.93295,-24.92392946 19.21537,15.9010191 23.99236,-6.8146291 -9.18489,23.1885844 z"
       inkscape:transform-center-x="2.3884989"
       inkscape:transform-center-y="1.238163" />
    <path
       sodipodi:type="star"
       style="fill:#7137c8;stroke-width:0.264583"
       id="path90"
       inkscape:flatsided="false"
       sodipodi:sides="5"
       sodipodi:cx="97.701861"
       sodipodi:cy="8.315052"
       sodipodi:r1="34.094248"
       sodipodi:r2="17.047124"
       sodipodi:arg1="0.65569563"
       sodipodi:arg2="1.2840142"
       inkscape:rounded="0"
       inkscape:randomized="0"
       d="M 124.72578,29.102683 102.52393,24.665956 86.282497,40.440059 83.641327,17.953824 63.620385,7.381767 84.189899,-2.078764 88.057711,-24.386756 103.41154,-7.7474511 125.82292,-10.962492 114.7426,8.7816952 Z"
       inkscape:transform-center-x="2.9802054"
       inkscape:transform-center-y="-0.28840089" />
    <path
       sodipodi:type="star"
       style="fill:#7137c8;stroke-width:0.264583"
       id="path91"
       inkscape:flatsided="false"
       sodipodi:sides="5"
       sodipodi:cx="726.87413"
       sodipodi:cy="97.701861"
       sodipodi:r1="20.284959"
       sodipodi:r2="10.142479"
       sodipodi:arg1="1.4337302"
       sodipodi:arg2="2.0620487"
       inkscape:rounded="0"
       inkscape:randomized="0"
       d="m 729.64583,117.79657 -7.5562,-11.15165 -13.47019,-0.0974 8.27086,-10.632421 -4.06987,-12.841018 12.66787,4.580454 10.95488,-7.838763 -0.44168,13.4633 10.84035,7.996398 -12.94085,3.74032 z"
       inkscape:transform-center-x="-0.85649746"
       inkscape:transform-center-y="1.1042965" />
    <path
       sodipodi:type="star"
       style="fill:#7137c8;stroke-width:0.264583"
       id="path92"
       inkscape:flatsided="false"
       sodipodi:sides="5"
       sodipodi:cx="844.6707"
       sodipodi:cy="4.157526"
       sodipodi:r1="28.879098"
       sodipodi:r2="14.439548"
       sodipodi:arg1="-0.52807445"
       sodipodi:arg2="0.10024408"
       inkscape:rounded="0"
       inkscape:randomized="0"
       d="m 869.61587,-10.393815 -10.5781,15.9963971 7.18057,17.7825859 -18.48229,-5.117211 -14.69333,12.324246 -0.84458,-19.159007 -16.26154,-10.1657826 17.9603,-6.723707 4.64314,-18.6070454 11.94467,15.0035281 z"
       inkscape:transform-center-x="1.8944814"
       inkscape:transform-center-y="-0.89309392" />
    <path
       sodipodi:type="star"
       style="fill:#7137c8;stroke-width:0.264583"
       id="path93"
       inkscape:flatsided="false"
       sodipodi:sides="5"
       sodipodi:cx="190.55327"
       sodipodi:cy="110.17444"
       sodipodi:r1="38.605091"
       sodipodi:r2="19.302544"
       sodipodi:arg1="1.2036225"
       sodipodi:arg2="1.831941"
       inkscape:rounded="0"
       inkscape:randomized="0"
       d="m 204.41169,146.20633 -18.84208,-17.3838 -25.00222,5.66652 10.71045,-23.29177 -13.11528,-22.02748 25.4615,2.988694 16.89653,-19.280243 5.02562,25.138884 23.55791,10.111635 -22.3555,12.54799 z"
       inkscape:transform-center-x="-3.0800705"
       inkscape:transform-center-y="-0.63214793" />
    <path
       sodipodi:type="star"
       style="fill:#7137c8;stroke-width:0.264583"
       id="path94"
       inkscape:flatsided="false"
       sodipodi:sides="5"
       sodipodi:cx="205.79754"
       sodipodi:cy="13.165499"
       sodipodi:r1="9.2965107"
       sodipodi:r2="4.648255"
       sodipodi:arg1="0.46364761"
       sodipodi:arg2="1.0919661"
       inkscape:rounded="0"
       inkscape:randomized="0"
       d="m 214.1126,17.323025 -6.17341,-0.03204 -3.52619,5.067344 -1.87722,-5.881161 -5.90898,-1.787714 5.01322,-3.602718 -0.12576,-6.1722113 4.97556,3.6545592 5.83126,-2.0269233 -1.93816,5.8613604 z"
       inkscape:transform-center-x="0.42784942"
       inkscape:transform-center-y="0.47092822" />
    <path
       sodipodi:type="star"
       style="fill:#7137c8;stroke-width:0.264583"
       id="path95"
       inkscape:flatsided="false"
       sodipodi:sides="5"
       sodipodi:cx="319.43658"
       sodipodi:cy="90.07973"
       sodipodi:r1="19.265198"
       sodipodi:r2="9.6325981"
       sodipodi:arg1="0.91290772"
       sodipodi:arg2="1.5412263"
       inkscape:rounded="0"
       inkscape:randomized="0"
       d="m 331.21624,105.32399 -11.49486,-5.615876 -11.14284,6.285466 1.78891,-12.667662 -9.42116,-8.655149 12.60047,-2.213172 5.32023,-11.634646 5.99861,11.299849 12.70925,1.464544 -8.89312,9.196863 z"
       inkscape:transform-center-x="0.17601309"
       inkscape:transform-center-y="-1.67146" />
    <path
       sodipodi:type="star"
       style="fill:#7137c8;stroke-width:0.264583"
       id="path96"
       inkscape:flatsided="false"
       sodipodi:sides="5"
       sodipodi:cx="929.20706"
       sodipodi:cy="6.236289"
       sodipodi:r1="11.800019"
       sodipodi:r2="5.9000091"
       sodipodi:arg1="0.70225693"
       sodipodi:arg2="1.3305755"
       inkscape:rounded="0"
       inkscape:randomized="0"
       d="m 938.215,13.85842 -7.60426,-1.891538 -5.86917,5.191866 -0.55089,-7.8165978 -6.75143,-3.977541 7.2638,-2.9393855 1.69655,-7.6501217 5.04016,5.99995791 7.79997,-0.75049422 -4.14881,6.64756341 z"
       inkscape:transform-center-x="0.86754266"
       inkscape:transform-center-y="-0.26936388" />
    <path
       sodipodi:type="star"
       style="fill:#7137c8;stroke-width:0.264583"
       id="path97"
       inkscape:flatsided="false"
       sodipodi:sides="5"
       sodipodi:cx="825.26891"
       sodipodi:cy="117.10365"
       sodipodi:r1="19.265198"
       sodipodi:r2="9.6325982"
       sodipodi:arg1="0.91290772"
       sodipodi:arg2="1.5412263"
       inkscape:rounded="0"
       inkscape:randomized="0"
       d="m 837.04858,132.34791 -11.49486,-5.61587 -11.14284,6.28547 1.78891,-12.66767 -9.42116,-8.65515 12.60046,-2.21317 5.32024,-11.634643 5.99861,11.299853 12.70925,1.46454 -8.89312,9.19686 z"
       inkscape:transform-center-x="0.17601309"
       inkscape:transform-center-y="-1.67146" />
    <text
       xml:space="preserve"
       transform="scale(0.26458333)"
       id="text98"
       style="line-height:1.25;font-family:sans-serif;font-size:40px;text-orientation:auto;white-space:pre;shape-inside:url(#rect98);-inkscape-font-specification:'sans-serif Italic';font-weight:normal;font-style:italic;font-stretch:normal;font-variant:normal" />
    <text
       xml:space="preserve"
       style="font-style:normal;font-variant:normal;font-weight:normal;font-stretch:normal;font-size:50.8px;line-height:1.25;font-family:Forte;-inkscape-font-specification:Forte;fill:#000000;stroke-width:0.264583"
       x="218.96303"
       y="74.14254"
       id="text99"><tspan
         sodipodi:role="line"
         id="tspan99"
         style="font-style:normal;font-variant:normal;font-weight:normal;font-stretch:normal;font-size:50.8px;font-family:Forte;-inkscape-font-specification:Forte;fill:#000000;stroke-width:0.264583"
         x="218.96303"
         y="74.14254">Talias Digital-Tech Portfolio</tspan></text>
  </g>
</svg>
